<?xml version="1.0" standalone="no"?>
<!DOCTYPE svg PUBLIC "-//W3C//DTD SVG 20010904//EN"
 "http://www.w3.org/TR/2001/REC-SVG-20010904/DTD/svg10.dtd">
<svg version="1.0" xmlns="http://www.w3.org/2000/svg"
 width="1080.000000pt" height="1080.000000pt" viewBox="0 0 1080.000000 1080.000000"
 preserveAspectRatio="xMidYMid meet">
<metadata>
Created by potrace 1.14, written by Peter Selinger 2001-2017
</metadata>
<g transform="translate(0.000000,1080.000000) scale(0.100000,-0.100000)"
fill="#000000" stroke="none">
<path d="M0 9740 l0 -1060 28 -1 c15 0 73 0 129 1 92 1 102 0 97 -15 -5 -11
-17 -16 -38 -15 -17 1 -73 2 -123 1 l-93 -1 0 -3200 0 -3200 38 -1 c20 -1 42
0 47 1 6 1 17 2 25 2 8 -1 75 -1 148 -2 86 0 132 -4 132 -11 0 -6 -27 -10 -72
-9 -40 1 -128 1 -195 1 l-123 -1 0 -1115 0 -1115 5400 0 5400 0 0 1115 0 1115
-752 0 c-722 -1 -754 -1 -775 -19 -13 -11 -23 -23 -23 -28 0 -5 -13 -22 -29
-37 l-29 -28 -60 41 c-55 37 -82 61 -68 61 2 0 32 -18 65 -40 33 -22 62 -40
64 -40 3 0 21 21 42 46 l37 45 -118 -1 c-66 0 -207 -1 -314 -1 l-194 1 -111
-108 c-130 -128 -243 -227 -251 -220 -2 3 30 36 73 73 43 37 120 108 171 159
l94 91 -38 3 c-34 3 -43 -2 -103 -61 -153 -148 -348 -310 -362 -301 -5 3 -9
-1 -9 -8 -1 -16 -43 -47 -228 -169 -213 -142 -214 -142 -224 -127 -7 10 -9 10
-5 -2 5 -18 -137 -105 -155 -94 -6 4 -8 3 -5 -3 6 -10 -312 -170 -350 -176
-10 -2 -33 -11 -50 -20 -18 -10 -35 -18 -38 -18 -2 0 -21 -7 -40 -15 -20 -8
-41 -12 -48 -8 -7 4 -8 3 -4 -1 9 -10 -142 -67 -160 -60 -7 2 -13 1 -13 -4 0
-11 -179 -64 -195 -57 -8 3 -15 0 -17 -5 -4 -11 -245 -72 -328 -83 -19 -3 -84
-14 -145 -25 -170 -30 -225 -35 -225 -20 0 8 -5 7 -17 -3 -23 -20 -193 -33
-193 -15 0 8 -3 8 -9 -1 -5 -8 -25 -13 -52 -12 -24 1 -72 -1 -106 -5 -47 -4
-63 -2 -63 7 0 10 -2 10 -8 1 -8 -13 -31 -13 -297 0 -189 9 -245 17 -246 36 0
14 -1 14 -7 0 -6 -14 -17 -14 -97 -3 -188 27 -283 47 -281 58 2 6 1 8 -1 3 -7
-11 -31 -8 -111 11 -40 10 -69 21 -65 25 4 5 0 5 -9 2 -19 -7 -171 34 -176 47
-2 4 -8 6 -13 3 -5 -4 -33 2 -63 11 -41 13 -69 31 -108 71 -35 35 -49 56 -42
63 6 6 24 -6 52 -39 45 -52 57 -58 170 -92 39 -11 72 -25 72 -30 0 -4 6 -6 14
-3 7 3 41 -2 74 -10 72 -19 92 -20 92 -3 1 35 14 38 96 22 43 -9 86 -19 94
-22 8 -3 23 -7 33 -8 11 -1 22 -8 27 -15 6 -9 9 -9 12 0 2 8 28 7 103 -5 55
-10 114 -18 130 -20 205 -16 224 -18 218 -29 -4 -7 -2 -8 5 -1 6 6 31 9 56 7
36 -3 44 -7 40 -20 -5 -15 -3 -14 9 1 13 16 35 18 233 17 121 -1 227 1 237 5
11 5 17 2 17 -6 0 -12 2 -12 9 0 6 9 23 12 54 10 25 -2 44 -1 42 2 -2 3 53 11
123 18 106 10 316 45 411 68 19 5 22 3 16 -8 -5 -8 1 -5 13 5 17 14 22 16 22
5 0 -11 2 -11 8 -1 5 7 67 28 138 47 71 19 149 41 173 49 24 9 47 13 52 10 5
-3 9 -1 9 4 0 16 52 25 61 10 7 -10 9 -9 9 3 0 22 191 94 202 76 5 -8 8 -7 8
4 0 17 46 43 61 34 5 -4 9 -2 9 3 0 6 19 17 43 27 83 33 294 140 422 213 184
106 398 252 571 390 35 28 49 30 49 5 0 -21 19 -27 36 -11 70 66 167 147 172
143 4 -3 5 -2 2 2 -6 8 24 43 37 43 5 0 20 12 33 27 l23 28 -76 5 c-42 3 -100
3 -128 0 -53 -5 -58 -9 -194 -125 -52 -46 -154 -124 -250 -192 -117 -83 -140
-97 -140 -86 0 6 29 29 66 53 122 79 450 338 440 347 -2 2 -120 4 -263 4
l-260 0 -58 -36 c-32 -19 -61 -33 -63 -30 -7 6 -8 6 65 48 l62 36 130 0 c72 0
197 1 278 1 l147 0 158 161 c249 253 465 529 619 792 96 164 100 170 107 163
3 -4 -3 -19 -14 -34 -11 -15 -23 -35 -27 -44 -21 -58 -268 -427 -354 -528
-149 -178 -228 -266 -338 -378 l-131 -132 128 0 c150 0 141 -7 159 126 9 70
18 96 38 121 14 17 66 80 116 140 111 134 100 120 137 171 20 29 34 40 41 33
6 -6 -2 -24 -24 -53 -19 -24 -39 -50 -46 -58 -38 -48 -180 -219 -202 -243 -22
-23 -29 -46 -41 -133 l-16 -104 36 0 c19 0 42 6 51 13 43 34 283 318 389 462
24 33 47 62 52 63 4 2 8 8 8 14 0 5 20 37 44 71 136 193 313 521 422 785 73
176 165 446 189 556 2 12 9 37 14 56 27 96 52 207 50 217 -1 4 0 15 4 23 3 8
10 29 16 45 l10 30 -1 -30 c-1 -17 1 -35 5 -41 4 -7 1 -14 -7 -17 -8 -3 -16
-29 -21 -64 -4 -32 -11 -62 -15 -68 -4 -5 -10 -28 -13 -50 -4 -22 -13 -65 -22
-95 -8 -30 -20 -73 -27 -95 -19 -69 -89 -279 -103 -310 -11 -27 -28 -72 -30
-85 0 -3 -9 -20 -18 -38 -10 -17 -14 -32 -10 -32 5 0 3 -4 -3 -8 -5 -4 -18
-29 -29 -57 -75 -202 -400 -762 -532 -915 -7 -8 -57 -72 -112 -141 -55 -70
-135 -163 -177 -208 l-76 -81 168 0 169 0 -38 25 c-20 14 -37 30 -37 35 0 5
20 32 45 60 25 28 45 46 45 40 0 -5 -16 -27 -35 -49 -19 -21 -35 -43 -35 -49
0 -5 20 -22 45 -36 43 -25 50 -26 172 -24 l127 3 58 75 c138 178 293 411 408
613 30 53 58 97 63 97 14 0 -128 -242 -246 -421 -42 -63 -119 -170 -171 -239
l-94 -125 366 -5 c202 -3 537 -4 745 -2 l377 2 0 3110 c0 2955 -1 3110 -17
3111 -10 0 -139 0 -286 -1 -251 -1 -306 -6 -327 -30 -5 -6 -144 -84 -295 -165
-38 -21 -74 -41 -80 -45 -5 -4 -61 -8 -124 -9 -63 0 -116 -2 -118 -4 -2 -2 20
-40 48 -83 141 -215 305 -511 297 -535 -2 -5 -30 44 -63 108 -68 132 -172 309
-252 431 l-55 82 -160 0 c-157 0 -160 0 -147 -20 139 -197 151 -217 138 -237
-10 -18 -5 -31 45 -112 79 -128 147 -253 141 -259 -7 -7 -7 -6 -50 73 -66 123
-112 198 -169 275 -31 41 -54 81 -51 88 3 7 1 11 -4 8 -5 -3 -21 13 -37 37
-16 23 -47 66 -69 95 l-40 52 -88 0 -88 0 64 -82 c120 -155 366 -537 330 -515
-5 3 -43 61 -84 128 -41 67 -81 132 -89 144 -8 12 -27 40 -42 63 -15 22 -64
89 -109 149 -45 59 -83 109 -84 111 -4 5 -75 5 -81 -1 -3 -3 4 -15 15 -26 25
-25 134 -172 213 -288 l57 -81 -24 -32 -23 -32 -53 79 c-64 95 -187 260 -247
331 l-44 52 -174 0 c-107 0 -174 4 -174 10 0 6 66 11 165 12 l166 3 -83 90
c-84 91 -175 183 -286 288 -34 32 -62 62 -62 66 0 4 11 18 24 30 l24 22 158
-155 c88 -85 197 -198 243 -250 79 -91 85 -96 123 -96 l39 0 -20 28 c-33 46
-138 162 -256 282 -167 171 -260 255 -440 398 -49 40 -94 76 -100 80 -5 4 -73
51 -150 103 -163 111 -311 198 -488 289 -70 36 -127 68 -127 73 0 9 193 -88
329 -165 149 -86 345 -215 456 -300 249 -191 542 -461 686 -633 19 -22 39 -46
46 -53 7 -7 29 -33 49 -57 l36 -45 90 0 90 0 -34 43 c-18 23 -43 53 -54 67
-347 409 -679 708 -1057 954 -114 74 -225 142 -300 184 -62 35 -287 147 -324
162 -22 8 -33 19 -33 32 0 10 -5 16 -10 13 -6 -4 -8 -10 -5 -15 7 -12 -148 52
-157 65 -4 5 -8 7 -8 3 0 -3 -37 8 -82 26 -46 18 -125 45 -175 61 -51 17 -93
33 -93 37 0 4 -6 5 -14 2 -7 -3 -20 1 -27 9 -8 7 -19 12 -25 10 -6 -2 -69 12
-140 31 -71 18 -148 37 -172 41 -23 4 -48 13 -56 20 -7 7 -18 10 -25 6 -14 -9
-71 -2 -71 10 0 4 4 11 10 14 6 3 10 11 10 17 0 5 -8 1 -18 -10 -14 -18 -25
-20 -64 -15 -26 3 -46 8 -44 12 2 3 -17 6 -42 7 -26 0 -112 8 -191 18 -80 9
-213 19 -297 23 -84 3 -151 10 -148 15 3 4 0 8 -5 8 -6 0 -11 -4 -11 -9 0 -6
-45 -10 -100 -10 l-100 0 -1 27 c0 24 -1 25 -8 7 -5 -11 -7 -23 -4 -27 2 -5
-24 -9 -59 -9 -105 -3 -377 -31 -504 -53 -51 -8 -74 -9 -74 -2 0 8 -3 7 -8 0
-4 -6 -38 -17 -77 -24 -76 -14 -80 -15 -143 -30 -24 -6 -47 -8 -52 -5 -5 3
-11 1 -14 -4 -5 -7 -63 -25 -117 -35 -53 -10 -438 -139 -522 -175 -26 -11 -51
-20 -55 -18 -4 1 -24 -8 -44 -21 -21 -13 -46 -24 -58 -25 -11 -1 -20 -4 -20
-8 0 -4 -10 -11 -22 -14 -24 -7 -249 -116 -258 -125 -3 -3 -18 -12 -35 -20
-25 -12 -208 -122 -361 -215 -103 -63 -341 -248 -515 -402 -64 -56 -120 -99
-124 -95 -5 4 -5 2 -1 -5 8 -14 -27 -36 -39 -25 -5 4 -5 1 0 -6 4 -9 -4 -26
-25 -47 l-33 -34 111 -3 c61 -2 110 1 109 6 -4 17 335 306 358 306 5 -1 -1
-10 -15 -21 -130 -105 -200 -164 -262 -221 l-73 -67 128 -1 c117 0 132 2 160
22 18 12 37 28 42 34 43 53 361 278 377 268 6 -4 8 -3 4 4 -3 6 26 30 71 58
43 26 89 54 103 63 114 73 386 209 555 279 182 75 362 135 376 126 5 -3 9 -1
9 4 0 13 147 55 166 48 8 -3 13 -2 10 2 -4 7 99 37 169 48 11 2 64 13 118 23
157 32 277 46 277 32 0 -11 -73 -25 -137 -25 -22 -1 -39 -4 -37 -7 1 -3 -32
-11 -74 -17 -42 -7 -150 -30 -240 -53 -90 -22 -168 -37 -174 -33 -7 4 -8 3 -4
-4 4 -7 1 -12 -8 -12 -24 0 -271 -84 -406 -139 -68 -27 -129 -47 -135 -44 -5
4 -7 3 -3 -2 9 -9 -130 -77 -143 -69 -5 3 -9 1 -9 -5 0 -14 -58 -43 -70 -36
-6 3 -10 2 -10 -4 0 -15 -58 -43 -72 -35 -6 4 -8 3 -5 -4 4 -6 -25 -28 -70
-52 -43 -24 -91 -52 -106 -62 -15 -11 -34 -21 -41 -22 -7 -1 -30 -16 -52 -34
-21 -18 -49 -35 -61 -38 -13 -4 -23 -10 -23 -14 0 -4 -16 -17 -36 -29 -37 -22
-281 -209 -324 -248 l-25 -23 33 0 c26 0 53 16 125 73 125 100 297 220 304
213 4 -3 4 -7 2 -9 -2 -2 -48 -34 -102 -71 -112 -76 -269 -197 -264 -203 2 -2
216 -3 476 -3 l472 0 127 69 c227 123 260 140 266 134 3 -4 6 -1 6 5 0 17 66
42 111 42 30 0 37 -3 33 -15 -4 -10 -20 -15 -47 -15 -25 0 -56 -10 -84 -25
-23 -14 -43 -23 -43 -20 0 3 -6 1 -12 -5 -28 -24 -218 -123 -218 -113 0 4 -6
0 -12 -9 -7 -9 -40 -30 -73 -47 l-60 -31 -495 0 -495 0 -130 -119 c-135 -123
-220 -209 -319 -323 -32 -38 -63 -68 -68 -68 -25 0 319 360 440 460 l53 45
-28 7 c-23 6 -33 2 -63 -26 -19 -18 -48 -44 -63 -57 -51 -43 -243 -242 -337
-349 -174 -198 -394 -510 -499 -708 -9 -17 -16 -22 -19 -14 -6 19 19 73 31 65
6 -4 7 -1 3 6 -5 7 -2 20 6 29 8 9 20 29 28 44 7 15 22 37 32 48 10 11 16 20
14 20 -3 0 31 54 75 120 44 66 84 120 89 120 5 0 12 9 15 21 6 19 108 152 156
204 10 11 51 58 91 105 80 92 195 210 300 307 l67 62 -62 3 c-34 2 -92 2 -129
0 l-67 -4 -81 -81 c-107 -106 -257 -278 -354 -402 -113 -147 -115 -149 -120
-144 -14 14 313 405 469 562 l68 67 -105 0 -105 0 -87 -91 c-47 -50 -86 -93
-86 -95 0 -3 -35 -46 -78 -97 -99 -117 -198 -251 -302 -408 -46 -68 -87 -123
-92 -121 -5 1 -7 -2 -3 -7 6 -11 -64 -141 -77 -141 -4 0 -8 -6 -8 -14 0 -7
-27 -65 -60 -127 -33 -62 -60 -116 -60 -119 0 -4 -20 -50 -43 -103 -35 -77
-46 -94 -57 -84 -10 10 -10 8 -1 -9 8 -17 7 -25 -4 -34 -8 -7 -12 -16 -10 -21
8 -12 -40 -121 -49 -112 -4 5 -6 4 -5 -2 6 -21 -13 -94 -29 -111 -10 -11 -16
-27 -14 -37 2 -10 -3 -33 -12 -52 -9 -18 -16 -40 -16 -50 0 -9 -6 -28 -14 -43
-7 -15 -19 -51 -26 -79 -6 -29 -16 -53 -21 -53 -6 0 -5 -8 1 -19 5 -11 6 -21
1 -23 -5 -2 -12 -18 -14 -37 -3 -19 -9 -37 -14 -40 -4 -3 -9 -15 -9 -26 -1
-11 -11 -69 -23 -130 -13 -60 -25 -125 -28 -142 -3 -18 -9 -33 -13 -33 -5 0
-6 -16 -3 -35 4 -24 2 -35 -7 -35 -7 0 -10 -8 -7 -20 3 -11 2 -46 -3 -78 -4
-32 -4 -65 1 -74 7 -13 6 -16 -3 -13 -10 4 -13 -13 -15 -65 -1 -38 -6 -78 -12
-87 -7 -13 -5 -23 6 -35 9 -10 11 -18 6 -18 -6 0 -12 -35 -15 -79 -3 -48 -10
-87 -19 -97 -12 -15 -12 -17 1 -12 13 5 15 -20 16 -186 0 -194 9 -381 19 -426
6 -27 18 -164 19 -220 1 -19 3 -37 6 -40 3 -3 11 -39 18 -80 29 -170 100 -452
162 -644 28 -86 48 -161 44 -167 -4 -7 -3 -9 3 -6 11 7 76 -149 68 -163 -3 -5
-1 -10 4 -12 5 -1 25 -39 46 -83 116 -251 248 -500 322 -607 14 -20 22 -42 18
-48 -3 -6 -2 -9 3 -8 6 2 10 1 9 -2 0 -3 11 -18 26 -34 15 -16 27 -34 27 -40
0 -6 -5 -4 -11 4 -9 13 -10 13 -6 0 2 -8 9 -15 15 -15 18 0 43 -42 36 -62 -4
-13 -3 -15 4 -4 8 10 13 9 25 -10 9 -12 13 -27 10 -32 -3 -6 -1 -7 6 -3 6 4
14 0 18 -11 4 -10 12 -22 19 -28 6 -5 43 -53 83 -105 39 -52 75 -100 79 -105
5 -6 7 -16 4 -23 -2 -7 2 -10 11 -6 9 3 24 -7 38 -28 13 -18 36 -44 51 -56 16
-13 28 -29 28 -35 0 -8 30 -12 98 -11 53 1 96 4 96 9 -1 4 -23 29 -48 55 -25
26 -46 52 -46 57 0 4 -9 14 -19 20 -11 7 -61 63 -111 125 -50 62 -102 126
-115 143 -28 32 -34 55 -10 35 8 -7 15 -16 15 -21 0 -4 10 -19 23 -32 12 -13
40 -47 62 -75 22 -28 61 -75 87 -104 27 -29 74 -83 105 -119 32 -37 66 -72 76
-78 17 -11 71 -14 215 -12 l44 1 -29 34 c-15 18 -31 32 -34 30 -12 -6 -41 35
-33 47 4 8 3 10 -4 5 -10 -6 -75 55 -142 134 -21 25 -58 68 -108 126 -63 72
-173 218 -237 314 -28 41 -55 81 -62 88 -7 7 -9 20 -6 29 6 14 8 14 20 -3 7
-10 13 -23 13 -30 0 -7 4 -14 8 -16 13 -5 83 -106 86 -123 1 -8 9 -21 18 -27
9 -7 55 -62 102 -123 48 -60 108 -134 134 -164 26 -29 50 -61 54 -70 4 -9 7
-11 7 -6 1 6 5 4 10 -3 4 -7 59 -65 121 -128 l113 -114 49 0 c33 0 47 -4 42
-11 -3 -6 -22 -9 -40 -7 -19 2 -34 0 -34 -5 0 -5 -8 -6 -17 -2 -10 3 -72 6
-138 5 -66 -1 -127 -2 -135 -2 -223 6 -208 7 -182 -21 12 -13 22 -29 22 -37 0
-7 3 -10 7 -6 11 11 72 -55 66 -73 -3 -11 -2 -12 4 -4 6 9 32 -11 87 -67 42
-44 81 -80 85 -80 14 0 41 -36 34 -44 -5 -4 -3 -6 3 -4 11 3 88 -56 141 -109
13 -12 23 -19 23 -15 0 4 4 2 8 -4 4 -6 69 -57 145 -113 75 -56 137 -107 137
-112 0 -6 4 -8 9 -4 5 3 15 -1 23 -8 7 -8 18 -16 24 -18 6 -2 61 -35 122 -74
112 -70 128 -89 97 -115 -12 -10 -32 -2 -109 46 -52 32 -93 61 -91 64 2 4 -2
7 -8 7 -7 0 -48 23 -91 52 -43 29 -79 51 -80 49 -2 -1 -28 -56 -59 -120 -47
-98 -59 -117 -74 -111 -29 11 -113 74 -113 85 0 5 17 -4 37 -20 71 -55 80 -57
100 -20 54 104 93 185 93 195 0 7 -18 25 -40 39 -22 15 -40 31 -40 35 0 5 -6
9 -12 9 -7 0 -30 16 -51 35 -21 19 -40 35 -42 35 -5 0 -44 32 -75 60 -9 8 -43
37 -75 65 -94 77 -245 227 -239 236 3 5 -3 6 -12 2 -14 -5 -16 -2 -12 14 4 15
1 20 -11 19 -9 0 -15 5 -13 12 1 8 -2 11 -6 8 -11 -7 -122 107 -122 124 0 9
-4 10 -13 2 -16 -14 -227 -15 -227 -1 0 5 48 9 111 9 l110 0 -50 58 c-28 32
-51 66 -51 76 0 9 -4 15 -9 12 -5 -3 -21 11 -37 32 -15 20 -32 39 -36 40 -4 2
-8 10 -8 18 0 8 -4 14 -10 14 -5 0 -22 19 -37 42 -16 24 -36 52 -46 63 -10 11
-31 40 -47 65 -16 25 -33 50 -38 55 -32 39 -62 93 -62 112 0 14 -5 21 -12 18
-12 -4 -136 190 -154 240 -4 11 -13 27 -20 36 -22 26 -144 272 -144 290 0 10
-5 21 -10 24 -15 9 -41 75 -34 86 3 5 0 9 -6 9 -7 0 -9 7 -6 16 3 8 2 13 -3
10 -9 -6 -37 60 -101 234 -17 47 -35 94 -40 105 -5 11 -11 31 -13 45 -3 14
-22 81 -42 150 -47 161 -87 339 -81 356 3 7 0 14 -5 16 -5 2 -12 21 -15 43 -2
22 -7 54 -11 70 -11 48 -12 58 -15 102 -2 24 -5 43 -8 43 -3 0 -6 10 -7 23 -5
73 -7 87 -12 87 -3 0 -6 18 -6 40 -1 29 3 40 14 40 8 0 11 3 7 7 -4 5 -12 8
-18 8 -6 0 -11 42 -13 103 -2 57 -6 106 -9 109 -3 4 0 13 6 21 10 11 8 17 -7
28 -10 8 -15 14 -9 14 5 0 9 75 9 182 0 248 10 441 23 446 7 2 7 14 1 35 -11
39 -11 39 0 33 5 -3 8 9 6 27 -5 69 79 542 95 532 5 -3 6 3 4 13 -3 9 0 38 6
62 6 25 15 65 21 89 5 24 16 57 24 74 8 17 15 37 16 46 1 28 35 122 41 115 4
-3 4 3 1 14 -2 11 5 38 16 60 11 22 17 42 14 46 -3 3 -1 11 4 18 6 7 21 42 33
78 13 36 31 83 41 105 9 22 31 74 49 115 17 41 36 80 43 85 7 6 13 17 14 25 1
8 4 24 8 35 5 17 -5 25 -60 50 -36 17 -65 34 -65 39 0 5 -3 7 -6 3 -4 -3 -24
3 -46 14 -22 11 -41 19 -43 17 -1 -2 -12 -21 -23 -43 -12 -22 -21 -34 -22 -27
0 7 9 30 20 52 23 45 13 47 153 -22 54 -26 100 -48 102 -48 2 0 16 23 31 50
15 28 32 50 37 50 6 0 8 3 4 6 -3 4 6 30 20 58 14 28 28 45 30 38 3 -6 9 -9
15 -6 6 4 6 9 -2 14 -10 6 0 29 36 90 27 44 56 93 64 107 18 32 176 268 202
303 113 150 275 347 342 418 l40 42 -84 1 c-47 1 -100 0 -119 -1 -19 -1 -37 4
-42 12 -7 10 -9 10 -9 1 0 -9 -16 -13 -44 -13 -41 0 -48 -4 -89 -51 -29 -34
-47 -47 -52 -39 -4 7 6 26 26 46 18 18 30 36 27 39 -3 3 -107 6 -231 6 -191 1
-225 3 -220 15 4 12 47 14 243 14 237 0 270 3 270 22 0 15 50 68 262 280 103
102 197 189 208 193 11 3 20 10 20 15 0 5 39 41 88 80 133 108 136 110 155
110 10 0 16 4 13 9 -3 5 22 30 57 55 34 25 67 49 72 53 34 26 104 73 109 73 3
0 15 8 26 18 43 36 384 239 413 245 6 1 14 5 17 8 15 17 193 99 203 93 7 -4 9
-4 5 1 -7 8 60 44 90 49 7 1 18 8 24 14 7 7 19 12 28 12 9 0 20 4 25 9 25 22
483 186 493 176 11 -11 -16 -23 -138 -64 -69 -23 -134 -46 -145 -51 -37 -17
-148 -60 -157 -60 -4 0 -35 -13 -69 -30 -34 -16 -69 -31 -78 -32 -9 -2 -18 -6
-21 -10 -3 -3 -39 -22 -80 -41 -41 -19 -126 -62 -189 -95 -62 -34 -118 -59
-124 -55 -5 3 -7 2 -4 -4 5 -9 -41 -38 -52 -33 -2 1 -7 -3 -10 -8 -9 -14 -91
-63 -91 -55 0 5 -4 3 -8 -3 -4 -6 -63 -48 -131 -93 -122 -82 -262 -183 -351
-254 -24 -20 -48 -33 -54 -30 -5 3 -6 2 -3 -4 8 -12 -130 -126 -143 -118 -5 3
-7 0 -5 -8 6 -13 -64 -77 -84 -77 -6 0 -11 -4 -11 -10 0 -5 -61 -72 -136 -147
-75 -76 -154 -159 -176 -185 l-40 -48 173 0 172 0 44 45 c25 26 48 43 55 39 6
-4 8 -3 5 3 -8 13 155 173 177 173 9 0 16 6 16 13 0 12 47 54 145 132 21 17
68 54 104 83 82 66 233 168 243 164 5 -1 8 2 8 7 0 15 224 153 234 144 3 -4 6
-1 6 4 0 22 476 264 524 267 13 0 22 4 20 7 -5 9 123 59 152 59 16 0 23 4 18
12 -5 8 0 9 14 6 12 -4 20 -3 17 2 -8 14 551 185 583 178 4 -1 16 3 26 7 13 6
21 4 24 -3 5 -16 23 -16 19 0 -3 17 81 32 99 17 12 -10 13 -9 9 3 -5 13 10 18
77 28 46 6 95 14 111 17 17 4 27 1 27 -6 0 -7 -5 -9 -12 -5 -7 4 -8 3 -4 -4 4
-6 13 -9 21 -6 8 4 13 10 10 14 -3 4 5 10 18 13 26 7 213 26 242 25 11 0 36 2
55 5 77 13 310 18 310 8 0 -6 5 -11 11 -11 5 0 7 5 4 10 -6 9 237 5 330 -5 17
-2 54 -4 83 -4 29 -1 51 -4 49 -8 -3 -5 20 -8 51 -8 92 -1 173 -15 165 -28 -5
-9 -3 -9 8 0 10 8 27 9 54 4 22 -5 86 -16 143 -26 56 -10 102 -22 102 -26 0
-4 9 -5 20 -2 15 4 20 0 20 -13 0 -15 2 -16 9 -5 7 11 18 11 62 1 122 -28 378
-103 497 -146 252 -92 496 -200 485 -217 -3 -6 -1 -7 5 -3 12 7 120 -44 221
-103 29 -18 54 -31 56 -29 1 2 19 32 40 68 21 36 43 68 48 71 5 3 8 9 8 13 -2
10 28 64 39 71 31 19 488 -293 755 -516 136 -114 452 -429 564 -564 50 -60 98
-117 106 -126 13 -14 157 -205 200 -266 15 -22 23 -23 140 -23 l125 0 210 115
c115 63 214 115 220 115 6 0 8 5 5 10 -4 7 82 10 267 10 150 0 283 0 296 0
l22 0 0 1155 0 1155 -5400 0 -5400 0 0 -1060z m5722 665 c5 -5 162 -16 220
-15 15 0 29 -4 33 -9 3 -6 12 -8 20 -5 26 10 504 -70 555 -93 8 -4 20 -7 25
-8 35 -3 136 -29 140 -36 12 -18 -18 -17 -101 5 -49 13 -142 34 -206 47 -64
13 -114 27 -111 32 3 5 -3 6 -14 3 -10 -3 -77 3 -149 13 -159 24 -203 29 -328
37 -54 3 -106 8 -115 9 -9 2 -40 4 -68 4 -29 1 -53 6 -53 11 0 10 142 15 152
5z m-1122 -65 c0 -10 -11 -12 -67 -14 -16 -1 -30 -4 -33 -7 -9 -11 -260 -60
-273 -53 -7 4 -8 3 -4 -2 7 -7 -96 -40 -158 -49 -11 -2 -22 -4 -25 -6 -3 -1
-9 -3 -15 -4 -5 -1 -23 -7 -38 -13 -35 -15 -37 -15 -37 1 0 10 112 48 185 61
11 2 46 12 78 21 32 9 61 14 64 11 4 -3 12 -1 19 5 8 6 34 12 58 13 24 0 42 3
39 6 -6 6 139 37 180 39 15 1 27 -3 27 -9z m1134 -75 c72 -3 132 -9 135 -14 4
-5 19 -7 35 -5 16 2 72 -3 125 -11 53 -8 112 -16 131 -19 76 -8 130 -19 126
-25 -2 -3 21 -7 52 -8 31 -1 58 -6 60 -12 2 -5 9 -8 15 -5 30 11 527 -128 527
-147 0 -6 4 -8 10 -4 15 10 63 -6 52 -17 -7 -7 -54 3 -139 31 -128 41 -428
118 -492 127 -19 2 -53 9 -78 14 -24 6 -60 13 -81 16 -20 3 -62 9 -92 14 -55
9 -288 34 -410 44 -36 3 -140 6 -232 7 -121 0 -168 4 -169 12 0 8 -2 8 -6 0
-2 -7 -13 -13 -24 -13 -13 0 -17 5 -12 16 6 16 64 16 467 -1z m-484 -3 c0 -8
-311 -36 -412 -37 -27 0 -48 -2 -48 -5 0 -10 -49 -10 -55 -1 -5 10 53 27 61
18 3 -3 19 -1 35 3 16 5 71 12 122 16 50 3 93 8 95 9 8 7 202 5 202 -3z m2066
-226 c174 -72 254 -109 254 -118 0 -15 -31 -8 -81 17 -42 22 -212 94 -295 125
-14 6 -22 14 -19 20 8 13 -4 17 141 -44z m-1754 -116 c20 -5 -55 -8 -182 -9
-118 -1 -232 -4 -252 -7 -23 -4 -38 -3 -38 3 0 6 37 11 87 12 48 1 89 4 91 6
7 7 262 3 294 -5z m-482 -9 c0 -4 -55 -14 -122 -20 -101 -10 -393 -54 -506
-76 l-27 -5 25 11 c50 22 377 73 585 92 22 2 41 4 43 5 1 1 2 -2 2 -7z m715
-1 c142 -13 203 -21 234 -31 20 -7 16 -8 -19 -4 -25 2 -103 9 -175 16 -71 6
-155 14 -185 19 l-55 8 50 0 c28 1 95 -3 150 -8z m393 -51 c39 -6 72 -15 72
-20 0 -5 -10 -7 -22 -4 -87 19 -117 25 -145 25 -18 0 -33 4 -33 10 0 5 12 7
28 5 15 -2 60 -9 100 -16z m-448 -24 c8 -2 42 -7 75 -9 179 -15 325 -35 325
-45 0 -3 21 -7 48 -8 85 -2 493 -102 500 -122 2 -6 9 -8 17 -5 22 9 365 -111
365 -127 0 -5 7 -6 15 -3 8 4 15 1 15 -7 0 -7 3 -10 6 -6 14 13 289 -119 303
-147 7 -13 10 -14 7 -3 -5 15 -2 16 14 7 11 -6 20 -15 20 -21 0 -6 4 -7 10 -4
8 5 54 -16 112 -52 5 -2 0 -19 -9 -36 -14 -27 -18 -29 -21 -13 -3 14 -6 15
-12 6 -6 -9 -29 -1 -91 33 -179 96 -522 240 -699 293 -33 10 -60 21 -60 26 0
4 -6 5 -13 2 -7 -2 -30 2 -50 11 -20 8 -37 13 -37 10 0 -4 -6 -3 -12 2 -7 4
-19 8 -25 9 -7 1 -61 14 -120 28 -60 14 -138 31 -175 37 -38 7 -68 15 -68 18
0 3 -15 7 -32 7 -18 1 -49 4 -68 6 -19 3 -66 9 -105 13 -38 4 -74 10 -78 12
-5 3 -32 6 -60 8 -29 1 -88 5 -132 8 -87 7 -519 7 -600 2 -52 -4 -138 -12
-215 -19 -25 -3 -58 -7 -75 -10 -16 -3 -95 -17 -175 -31 -80 -13 -217 -42
-304 -64 -88 -22 -163 -38 -167 -35 -4 2 -9 0 -11 -6 -2 -6 -17 -11 -35 -13
-17 -1 -29 -5 -26 -9 4 -7 -28 -13 -49 -9 -5 0 -8 -4 -8 -9 0 -6 -5 -10 -11
-10 -16 0 -251 -87 -319 -117 -119 -55 -141 -63 -134 -50 4 6 -4 2 -17 -9 -13
-12 -50 -33 -81 -47 -49 -22 -57 -23 -62 -10 -4 9 -4 25 0 36 4 13 2 17 -5 13
-6 -4 -11 -5 -11 -2 0 12 101 56 112 50 6 -4 8 -3 5 3 -4 6 32 26 80 47 68 30
88 35 94 24 7 -10 9 -10 9 3 0 17 66 53 81 44 5 -4 9 -2 9 3 0 12 119 54 130
47 5 -3 10 0 12 6 7 20 448 146 469 133 6 -3 14 -2 18 5 9 14 206 55 232 48
10 -3 19 -1 19 4 0 5 7 9 15 9 11 0 12 -5 5 -25 -6 -16 -6 -25 0 -25 6 0 10 8
10 19 0 24 21 41 51 41 13 0 71 6 129 14 135 19 183 20 175 4 -4 -7 -1 -6 7 3
10 12 35 17 103 18 49 1 91 4 93 6 6 5 463 -4 482 -10z m589 -1 c17 -4 31 -11
31 -15 0 -10 -45 -2 -70 12 -18 10 -3 11 39 3z m-2990 -37 c-2 -2 -68 -36
-146 -75 -78 -39 -164 -85 -193 -102 -28 -16 -53 -30 -56 -30 -3 0 -17 -9 -32
-19 -49 -34 -171 -111 -176 -111 -3 0 -14 -6 -23 -14 -89 -73 -254 -183 -260
-174 -3 7 2 17 11 22 10 6 33 22 51 36 61 46 80 59 90 61 6 1 16 10 23 21 7
10 17 16 22 13 4 -3 10 -1 12 3 5 14 111 85 125 85 7 0 13 4 13 8 0 6 26 23
105 69 17 9 53 31 80 47 107 63 247 133 256 128 5 -4 9 -1 9 4 0 15 73 49 84
39 5 -4 8 -9 5 -11z m1081 15 c0 -4 -52 -20 -116 -35 -64 -16 -123 -31 -132
-34 -9 -4 -13 -2 -9 4 6 10 81 34 116 38 9 1 23 5 31 7 15 6 87 24 103 27 4 0
7 -2 7 -7z m2110 -27 c130 -32 433 -128 504 -159 17 -8 46 -20 65 -27 19 -7
30 -14 24 -16 -6 -2 -44 9 -84 25 -82 33 -281 101 -374 128 -72 21 -49 15
-170 43 -55 13 -104 27 -109 32 -15 13 -7 12 144 -26z m-2385 -44 c-13 -12
-117 -42 -123 -36 -5 5 8 11 70 30 53 17 65 18 53 6z m1585 -16 c14 -3 54 -8
90 -11 67 -5 101 -10 110 -14 3 -1 21 -2 40 -2 19 0 39 -2 43 -5 5 -3 27 -7
50 -9 23 -2 51 -5 62 -8 11 -2 32 -5 48 -5 17 -1 27 -6 27 -16 0 -8 -1 -15 -2
-15 -2 0 -41 7 -88 15 -47 9 -107 18 -135 21 -27 3 -84 10 -125 15 -41 6 -181
13 -310 16 -139 3 -238 9 -241 15 -4 7 -8 7 -10 1 -5 -13 -229 -27 -229 -15 0
16 48 23 132 21 43 -1 81 1 85 5 7 7 412 -1 453 -9z m-680 -14 c0 -9 -94 -25
-115 -20 -5 1 -18 -1 -28 -6 -21 -9 -32 -1 -22 15 4 7 24 10 46 8 22 -2 39 0
39 4 0 5 18 8 40 8 22 0 40 -4 40 -9z m-1040 -10 c0 -5 -27 -18 -60 -29 -33
-12 -60 -17 -60 -13 0 5 26 18 58 29 31 11 58 21 60 21 1 1 2 -3 2 -8z m1525
-41 c11 -5 -50 -8 -140 -8 -88 0 -149 3 -135 7 34 10 249 11 275 1z m-1665 -8
c0 -4 -13 -13 -30 -19 -35 -13 -41 -1 -7 15 27 13 37 14 37 4z m1300 -2 c-128
-14 -245 -21 -237 -14 10 10 130 21 227 21 l75 0 -65 -7z m652 -3 c10 -2 21
-7 25 -11 4 -5 -17 -6 -47 -2 -30 3 -91 9 -135 12 -44 3 -82 8 -85 11 -4 5
199 -4 242 -10z m-907 -17 c-3 -5 -27 -9 -53 -9 -46 2 -46 2 -12 9 53 11 72
11 65 0z m1088 -6 c37 -4 70 -11 74 -16 3 -6 -6 -8 -23 -4 -16 3 -65 10 -108
16 -44 6 -82 13 -85 17 -3 3 12 3 34 0 22 -3 71 -9 108 -13z m-2206 -1 c-13
-12 -187 -81 -187 -73 0 4 37 23 83 43 78 33 118 45 104 30z m1008 -8 c-5 -2
-68 -13 -140 -25 -71 -12 -139 -23 -150 -26 -15 -4 -17 -3 -5 4 8 5 53 17 100
25 47 9 94 18 105 20 25 6 104 7 90 2z m1408 -25 c37 -7 67 -15 67 -20 0 -4
-19 -3 -42 1 -24 5 -64 12 -90 15 -27 4 -48 11 -48 16 0 6 10 8 23 5 12 -3 52
-11 90 -17z m1002 -41 c15 -15 -13 -10 -45 6 -17 9 -30 17 -30 20 0 6 63 -16
75 -26z m-2735 11 c0 -5 -5 -10 -11 -10 -5 0 -7 5 -4 10 3 6 8 10 11 10 2 0 4
-4 4 -10z m1879 -2 c28 -6 51 -15 51 -18 0 -8 -108 15 -118 24 -8 9 11 7 67
-6z m-1914 -6 c-6 -5 -59 -21 -120 -36 -60 -15 -129 -35 -152 -43 -23 -8 -47
-13 -55 -11 -14 5 44 24 212 69 115 31 129 33 115 21z m-845 -7 c0 -3 -39 -24
-87 -47 -49 -22 -91 -42 -95 -45 -5 -2 -8 0 -8 5 0 5 39 28 88 50 88 41 102
46 102 37z m3675 -21 c20 -8 35 -18 31 -21 -5 -6 -76 24 -76 32 0 7 5 6 45
-11z m-3876 -77 c-18 -15 -269 -143 -269 -138 0 11 262 152 269 145 2 -2 2 -6
0 -7z m701 9 c0 -7 -101 -38 -106 -33 -3 3 14 12 38 20 44 16 68 20 68 13z
m-120 -40 c0 -2 -7 -7 -16 -10 -8 -3 -12 -2 -9 4 6 10 25 14 25 6z m3100 -93
c47 -17 250 -117 250 -124 0 -4 -60 20 -132 55 -73 35 -150 68 -170 75 -21 7
-38 17 -38 22 0 5 17 2 38 -7 20 -9 44 -18 52 -21z m-3961 -27 c-2 -2 -55 -36
-118 -75 -63 -40 -145 -94 -183 -122 -37 -27 -70 -49 -73 -49 -4 0 -20 -13
-38 -29 -17 -17 -35 -27 -40 -24 -10 6 81 74 253 187 145 95 193 124 199 120
2 -2 2 -6 0 -8z m-669 -34 c0 -7 -110 -98 -115 -95 -2 0 -24 -19 -50 -43 -26
-24 -51 -41 -56 -38 -5 3 -8 0 -7 -8 2 -7 -3 -12 -9 -11 -7 2 -12 0 -11 -5 2
-4 -33 -40 -77 -81 -92 -85 -180 -169 -214 -206 -12 -14 -28 -22 -34 -18 -15
9 279 292 431 414 117 93 142 110 142 91z m5070 -159 c19 -11 64 -38 99 -59
173 -106 272 -175 435 -305 163 -129 455 -399 432 -399 -5 0 -57 46 -115 103
-199 191 -414 366 -621 502 -121 80 -334 206 -377 224 -18 7 -33 18 -33 23 0
8 67 -25 180 -89z m-3050 -185 c0 -10 2 -10 8 -1 11 17 1023 17 1034 0 6 -9 8
-9 8 0 0 10 213 12 960 13 742 0 960 -3 960 -12 0 -9 3 -9 12 0 17 17 38 15
38 -3 0 -19 -80 -22 -81 -2 0 9 -2 9 -5 0 -8 -18 -1534 -18 -1535 -1 0 10 -2
10 -6 1 -3 -8 -24 -13 -54 -13 -38 0 -48 3 -43 13 6 9 5 9 -7 0 -22 -18 -1063
-18 -1053 -1 6 10 4 11 -7 1 -10 -10 -74 -13 -251 -13 -205 0 -238 2 -238 15
0 13 21 15 130 15 97 0 130 -3 130 -12z m-316 -80 c-6 -10 -4 -10 7 0 14 13
133 17 125 4 -3 -5 -43 -31 -88 -58 -113 -66 -128 -74 -128 -67 0 4 -9 -3 -21
-16 -12 -12 -28 -20 -36 -17 -8 3 -11 1 -8 -4 4 -6 -16 -10 -50 -10 -50 0 -56
2 -51 17 6 16 6 16 -12 0 -10 -9 -29 -17 -43 -17 -18 0 -3 13 56 47 44 25 112
65 150 89 69 42 113 56 99 32z m253 -78 l-147 -90 -92 0 -92 0 149 89 150 90
90 0 90 1 -148 -90z m271 78 c9 -9 12 -9 12 0 0 7 5 12 11 12 6 0 9 -9 6 -20
-3 -11 -1 -18 4 -14 5 3 9 11 9 19 0 12 69 14 425 15 443 0 448 0 413 -40 -11
-12 -10 -12 5 -1 9 7 17 20 17 27 0 12 41 14 225 14 158 0 225 -3 225 -11 0
-6 -37 -47 -82 -90 l-83 -78 -468 -1 c-372 0 -467 3 -461 13 6 9 5 9 -7 0 -11
-9 -93 -12 -303 -12 l-288 0 63 40 c71 46 107 63 129 60 12 -1 12 0 2 7 -10 7
-2 16 30 34 70 41 96 46 116 26z m-4206 -171 c6 -9 8 -9 8 1 0 6 7 12 16 12 9
0 12 -5 8 -12 -6 -10 -5 -10 7 -1 22 17 602 18 597 1 -4 -10 -99 -14 -426 -16
-232 -1 -422 2 -422 6 0 18 16 21 109 21 63 0 98 -4 103 -12z m1021 -389 c-11
-13 -39 -51 -63 -85 -23 -35 -47 -60 -51 -57 -5 3 -9 -2 -9 -10 0 -21 -59
-116 -71 -116 -6 0 -8 -4 -5 -8 3 -5 -6 -25 -19 -44 -13 -20 -55 -91 -94 -158
-38 -67 -72 -117 -75 -111 -8 12 40 111 53 111 4 0 8 6 8 13 0 23 124 221 257
410 48 70 72 95 79 88 8 -8 5 -17 -10 -33z m5247 -48 c0 -6 -64 -10 -165 -9
-91 0 -165 5 -165 9 0 5 74 9 165 9 100 0 165 -4 165 -9z m146 1 c-3 -5 -35
-9 -71 -10 -41 0 -64 3 -60 9 3 6 35 10 71 10 36 0 63 -4 60 -9z m1504 -1 c0
-6 -257 -10 -745 -9 -458 0 -745 3 -745 9 0 6 287 10 745 10 489 0 745 -3 745
-10z m-6291 -149 c-19 -22 -37 -41 -41 -41 -5 0 -8 -5 -8 -10 0 -6 -33 -54
-73 -108 -40 -53 -93 -127 -117 -164 -25 -38 -49 -68 -54 -68 -5 0 -2 8 7 18
10 10 17 22 17 26 0 18 208 303 268 368 39 42 39 25 1 -21z m-461 -193 c-78
-117 -186 -296 -232 -383 -14 -27 -26 -43 -26 -34 0 15 135 258 149 269 3 3
12 16 19 30 25 53 154 241 160 235 2 -2 -29 -55 -70 -117z m8742 -51 c0 -2
-10 -12 -22 -23 l-23 -19 19 23 c18 21 26 27 26 19z m-6750 -232 c303 -67 555
-210 796 -449 192 -192 320 -383 447 -666 59 -131 157 -499 157 -586 0 -13 3
-24 8 -24 4 0 7 -21 7 -46 0 -29 6 -48 15 -54 10 -7 11 -10 3 -10 -15 0 -19
-125 -4 -134 5 -4 5 -22 1 -43 l-9 -37 28 30 c16 16 211 210 435 432 223 221
406 407 406 412 0 6 5 10 12 10 6 0 274 262 595 583 321 320 588 583 592 585
5 2 372 -358 816 -800 444 -442 812 -802 817 -800 5 1 7 -1 4 -6 -6 -9 197
-212 213 -212 6 0 10 -4 8 -9 -1 -4 44 -54 101 -110 56 -56 102 -110 102 -121
0 -10 -103 -120 -244 -261 -135 -134 -242 -248 -239 -254 4 -5 2 -6 -2 -2 -11
9 -146 -123 -139 -135 3 -5 1 -7 -4 -6 -5 2 -326 -312 -714 -696 -619 -613
-759 -748 -735 -709 8 13 -587 606 -598 596 -4 -5 -5 -3 -2 3 8 14 -1032 1046
-1046 1037 -5 -3 -7 -2 -4 4 3 5 -83 98 -192 207 -223 222 -207 217 -210 71
-1 -44 -9 -127 -18 -185 -9 -58 -17 -120 -18 -138 -1 -18 -5 -35 -9 -39 -3 -3
-6 -17 -6 -29 0 -13 -4 -33 -9 -46 -5 -13 -14 -43 -21 -68 -18 -65 -70 -219
-89 -265 -10 -22 -26 -60 -37 -85 -33 -79 -115 -222 -182 -320 -36 -52 -68
-97 -71 -100 -3 -3 -32 -37 -64 -77 -59 -73 -185 -194 -267 -256 -203 -153
-422 -253 -652 -298 -128 -25 -406 -27 -529 -3 -415 78 -794 340 -1062 732
-31 46 -57 86 -57 89 0 4 -6 14 -14 22 -22 24 -119 224 -161 330 -71 179 -105
309 -141 546 -31 200 -22 628 16 785 5 19 14 62 20 95 35 176 141 455 239 625
99 174 182 283 314 419 250 255 508 400 842 471 76 16 121 19 285 16 133 -3
219 -9 270 -21z m5814 -150 l56 -113 -35 -176 c-19 -97 -35 -179 -35 -181 0
-3 -4 -5 -10 -5 -5 0 -7 6 -5 13 2 6 6 26 9 42 2 17 16 85 30 152 14 67 26
130 26 140 0 11 -20 60 -45 111 -25 50 -45 97 -45 102 0 6 -4 9 -9 6 -5 -3
-11 2 -14 12 -2 9 -8 26 -12 37 -17 49 35 -33 89 -140z m-7876 112 l22 -23
-36 -67 c-19 -37 -39 -67 -43 -67 -4 0 -8 -6 -8 -12 0 -7 -25 -66 -56 -130
-30 -64 -61 -133 -68 -152 -11 -30 -15 -33 -28 -23 -12 10 -13 9 -4 -7 8 -14
5 -33 -14 -80 -34 -86 -133 -376 -139 -406 -8 -41 -11 -54 -17 -70 -17 -48
-39 -151 -34 -164 3 -8 1 -16 -6 -19 -6 -2 -12 -14 -13 -28 -1 -13 -4 -31 -7
-39 -3 -8 -13 -58 -21 -110 -21 -127 -26 -152 -32 -161 -2 -4 0 -11 6 -14 7
-5 8 -11 1 -19 -6 -6 -10 -21 -10 -31 0 -11 -2 -38 -5 -60 -9 -59 -20 -223
-20 -277 1 -27 -3 -48 -8 -48 -5 0 -6 -16 -2 -35 4 -24 2 -41 -7 -52 -8 -9 -9
-14 -2 -10 8 5 11 -33 10 -152 -1 -87 1 -157 5 -155 4 2 6 -10 6 -28 -1 -31 1
-59 18 -208 4 -30 7 -80 8 -110 1 -30 4 -58 8 -61 5 -3 10 -30 13 -60 7 -63
10 -86 26 -154 7 -27 12 -63 13 -80 0 -16 4 -32 8 -35 4 -3 9 -21 10 -40 2
-19 6 -38 11 -41 4 -3 9 -20 10 -37 1 -18 5 -32 8 -32 4 0 9 -15 13 -32 3 -18
13 -58 22 -88 8 -30 16 -62 17 -70 1 -8 6 -18 11 -22 5 -3 11 -15 12 -25 5
-40 62 -188 72 -186 5 1 8 -6 5 -16 -2 -9 7 -43 22 -75 15 -32 27 -66 28 -77
1 -10 7 -21 14 -23 7 -3 13 -12 13 -21 0 -9 12 -39 26 -67 23 -45 24 -52 10
-60 -9 -5 -16 -19 -15 -31 l0 -22 9 23 c13 31 29 28 36 -8 4 -16 10 -28 14
-25 11 7 22 -43 14 -58 -4 -7 -4 -9 1 -5 12 11 35 -11 35 -33 0 -11 4 -19 9
-19 5 0 12 -8 15 -17 8 -20 -3 -123 -13 -123 -3 0 -28 41 -54 90 -27 50 -45
90 -41 90 4 0 0 6 -10 13 -10 8 -19 26 -19 41 0 15 -2 24 -5 21 -9 -9 -32 35
-96 189 -25 60 -43 113 -40 117 3 5 1 9 -5 9 -8 0 -38 70 -32 78 1 1 -6 17
-15 34 -18 35 -74 196 -72 206 1 4 -2 14 -5 22 -7 17 -27 87 -67 240 -34 129
-63 287 -55 299 3 5 1 12 -5 16 -13 8 -13 50 1 78 10 21 10 21 -5 3 -17 -21
-16 -25 -21 72 0 13 -5 26 -10 30 -6 4 -10 30 -11 57 0 28 -4 91 -8 140 -17
204 -17 262 2 281 14 15 14 17 1 12 -14 -5 -16 4 -17 70 0 48 4 80 11 85 9 7
9 10 0 14 -20 8 -16 53 5 53 14 0 14 2 3 9 -18 11 -18 161 0 172 7 4 8 9 1 13
-6 3 -9 18 -7 34 2 15 7 59 10 97 4 42 14 78 24 89 9 11 10 16 4 12 -15 -9
-17 17 -4 43 5 9 6 23 1 31 -5 8 -1 26 11 47 11 19 15 31 9 28 -12 -7 -5 49
11 93 12 33 11 44 -3 36 -10 -6 -10 -5 -1 7 12 15 21 46 30 107 3 17 8 32 12
32 3 0 7 12 8 28 4 64 8 92 15 92 3 0 11 19 16 43 6 23 20 76 32 117 12 41 23
80 24 85 2 6 8 23 14 38 7 16 12 32 12 37 0 4 7 21 15 36 8 16 15 36 15 45 0
8 4 19 9 25 5 5 11 20 13 34 2 14 9 24 15 23 7 -2 10 3 7 11 -3 7 4 33 15 57
11 24 31 71 45 104 29 72 116 248 125 255 3 3 7 12 9 20 5 23 73 140 81 140 4
0 17 -10 29 -23z m8357 13 c-4 -6 5 -31 19 -56 14 -26 26 -53 26 -60 0 -8 10
-31 23 -52 13 -20 29 -57 36 -82 7 -25 16 -47 20 -50 3 -3 17 -34 29 -70 13
-36 37 -101 53 -145 29 -80 111 -345 123 -397 4 -16 2 -28 -3 -28 -5 0 -12 17
-16 38 -4 20 -16 66 -27 102 -11 36 -31 101 -45 145 -13 44 -28 89 -33 100 -5
11 -12 31 -15 45 -4 14 -13 39 -20 55 -7 17 -21 51 -30 78 -10 26 -22 47 -27
47 -5 0 -6 4 -3 10 3 5 -5 33 -18 62 -13 29 -43 97 -67 150 -27 62 -47 95 -54
91 -6 -4 -5 1 3 10 14 18 36 24 26 7z m-313 -100 c42 -88 68 -122 68 -90 0 6
4 10 9 10 12 0 43 -79 36 -91 -3 -5 0 -6 8 -3 11 4 17 -5 22 -35 4 -22 3 -46
-1 -52 -5 -8 -2 -10 8 -7 11 5 23 -13 47 -75 17 -45 31 -92 31 -104 0 -13 4
-23 9 -23 5 0 17 -26 27 -57 9 -32 20 -62 24 -68 4 -5 13 -35 21 -65 7 -30 18
-58 24 -62 5 -4 7 -8 3 -8 -4 0 0 -21 8 -47 8 -27 17 -59 20 -73 2 -14 11 -45
18 -70 8 -25 20 -73 26 -107 11 -52 10 -66 -1 -80 -12 -16 -12 -17 2 -5 14 11
18 5 28 -49 9 -44 16 -59 26 -55 39 14 174 70 203 83 25 11 31 19 27 36 -34
155 -47 215 -52 232 -3 13 -2 17 5 10 14 -14 54 -179 56 -233 1 -53 6 -50
-150 -112 l-100 -41 18 -112 c10 -62 19 -131 21 -154 4 -40 3 -42 -26 -49 -33
-7 -48 7 -40 37 3 10 1 19 -4 19 -5 0 -7 15 -5 33 2 19 -1 50 -6 69 -6 23 -6
41 0 53 6 10 6 15 1 12 -5 -3 -15 29 -22 71 -8 42 -23 115 -34 162 -11 47 -20
100 -20 118 0 17 -3 32 -7 32 -3 0 -11 21 -18 48 -48 181 -102 352 -110 352
-4 0 -8 10 -8 23 -1 12 -25 81 -54 154 -28 73 -51 135 -50 139 1 4 -2 10 -7
13 -12 9 -53 99 -53 118 0 18 -65 150 -86 174 -13 14 -10 30 5 29 3 -1 27 -46
53 -100z m-8017 -49 c-14 -23 -25 -45 -25 -49 0 -5 -9 -21 -21 -36 -11 -14
-18 -26 -15 -26 4 0 -10 -32 -29 -70 -19 -39 -60 -132 -90 -208 -31 -75 -59
-146 -64 -157 -22 -47 -42 -125 -35 -136 4 -7 3 -9 -3 -6 -7 4 -62 -135 -68
-173 0 -3 -9 -44 -20 -92 -15 -68 -23 -88 -36 -88 -14 0 -16 5 -9 28 5 15 14
47 20 72 7 25 18 61 25 80 8 19 19 59 25 88 7 29 18 59 26 66 7 8 11 16 8 19
-7 6 17 87 25 87 3 0 7 15 8 33 2 17 8 36 16 42 7 5 12 20 11 33 -1 12 3 22 7
22 5 0 9 5 9 12 0 6 9 30 19 52 11 23 29 65 41 95 12 30 58 128 102 218 60
120 84 160 90 149 6 -10 0 -29 -17 -55z m-737 42 c-2 -5 -9 -19 -15 -33 -51
-113 -65 -141 -69 -137 -7 7 69 177 79 177 5 0 7 -3 5 -7z m486 -94 c-19 -39
-37 -69 -40 -66 -7 6 58 137 68 137 5 0 -8 -32 -28 -71z m-78 -171 c-34 -73
-43 -96 -81 -203 -25 -69 -37 -95 -46 -95 -8 0 0 40 12 55 4 6 16 35 27 65 32
91 116 274 119 263 2 -6 -12 -44 -31 -85z m-498 50 c-6 -18 -16 -44 -23 -58
-6 -14 -22 -53 -35 -87 -12 -35 -24 -63 -27 -63 -6 0 8 61 18 80 11 19 32 72
35 85 4 25 27 75 34 75 5 0 4 -15 -2 -32z m8212 -22 c0 -2 -8 -10 -17 -17 -16
-13 -17 -12 -4 4 13 16 21 21 21 13z m545 -146 c7 -19 25 -66 40 -105 46 -120
95 -268 90 -273 -3 -3 -1 -10 4 -16 9 -11 61 -193 66 -231 2 -11 8 -33 14 -48
11 -29 23 -92 25 -137 0 -14 4 -27 7 -30 13 -10 27 -135 17 -145 -6 -6 -7 -3
-2 9 6 16 4 17 -14 7 -39 -21 -49 -14 -57 42 -4 28 -10 66 -12 82 -3 17 -6 38
-6 48 -1 9 -5 17 -9 17 -4 0 -8 10 -8 23 0 12 -9 55 -20 96 -10 41 -17 78 -14
83 3 4 1 8 -3 8 -5 0 -17 33 -27 73 -10 39 -46 149 -79 242 -39 111 -60 184
-59 210 3 90 23 109 47 45z m-8854 -91 c-2 -8 -19 -63 -38 -124 -49 -156 -64
-215 -57 -226 3 -5 -2 -16 -10 -25 -9 -8 -16 -26 -16 -40 0 -13 -5 -24 -10
-24 -10 0 -5 54 7 74 4 6 8 17 9 26 2 20 41 160 53 193 6 15 9 27 7 27 -2 0 7
25 19 57 13 31 21 63 18 71 -4 10 -1 13 8 10 8 -3 12 -12 10 -19z m8749 -61
c0 -35 -15 -67 -25 -56 -6 6 14 88 22 88 1 0 3 -15 3 -32z m-8285 -83 c-17
-13 -103 -300 -109 -361 -1 -11 -5 -25 -9 -31 -4 -6 -9 -24 -11 -40 -3 -15
-12 -61 -20 -101 -9 -40 -19 -85 -21 -100 -16 -94 -31 -162 -38 -168 -17 -17
27 226 79 436 4 14 8 32 9 40 1 8 5 22 8 30 3 8 8 26 11 40 8 42 48 173 62
207 8 17 14 33 14 36 0 3 5 18 11 34 10 26 12 26 19 8 4 -12 2 -24 -5 -30z
m8288 -27 c8 -24 27 -81 42 -128 15 -47 29 -92 33 -100 3 -8 11 -37 18 -65 6
-27 19 -77 28 -110 9 -33 18 -71 20 -85 3 -14 14 -74 26 -133 12 -60 19 -111
16 -114 -8 -8 -11 7 -31 117 -9 52 -21 109 -25 125 -5 17 -23 86 -40 154 -17
68 -51 182 -75 252 -24 71 -40 129 -35 129 4 0 14 -19 23 -42z m1337 -142 c0
-2 -8 -10 -17 -17 -16 -13 -17 -12 -4 4 13 16 21 21 21 13z m-10229 -194 c-15
-5 -14 -42 1 -42 7 0 5 -5 -4 -12 -9 -7 -19 -35 -23 -63 -5 -27 -10 -59 -12
-70 -2 -11 -5 -36 -6 -55 -1 -19 -6 -38 -10 -41 -5 -3 -10 -31 -12 -62 -2 -30
-8 -79 -13 -109 -20 -105 -24 -158 -10 -158 9 0 10 -2 2 -8 -9 -5 -37 -249
-33 -280 5 -28 -3 -102 -9 -102 -11 0 -6 134 13 370 3 36 7 90 9 120 2 30 9
81 16 113 6 31 10 67 9 80 -2 12 0 28 5 35 8 13 11 29 21 102 2 19 9 51 15 70
5 19 10 45 10 58 0 12 7 39 17 60 13 30 17 33 21 17 2 -10 -1 -21 -7 -23z
m9829 -336 c0 -12 4 -36 9 -52 6 -16 12 -58 16 -94 3 -36 7 -87 10 -115 2 -27
7 -95 10 -150 15 -247 15 -238 -9 -229 -8 3 -11 17 -8 35 3 20 0 34 -9 40 -11
7 -11 9 -1 9 10 0 12 11 8 43 -3 23 -8 87 -11 142 -3 55 -8 118 -11 141 -21
154 -27 254 -15 254 6 0 11 -11 11 -24z m-730 -176 c29 -227 34 -319 34 -610
-1 -167 -5 -285 -11 -300 -8 -18 -9 43 -5 214 4 197 2 240 -9 247 -11 7 -11 9
-1 9 11 0 12 15 8 68 -4 37 -8 104 -11 150 -3 45 -7 92 -10 105 -3 12 -7 49
-9 82 -2 33 -7 78 -11 100 -5 28 -4 37 3 30 6 -5 16 -48 22 -95z m-8013 74
c-3 -3 -12 -4 -19 -1 -8 3 -5 6 6 6 11 1 17 -2 13 -5z m-429 -72 c-26 -135
-31 -230 -30 -592 1 -306 6 -425 18 -460 3 -8 6 -44 8 -80 2 -64 2 -65 -10
-25 -6 22 -14 74 -18 115 -3 41 -9 111 -14 155 -15 171 -5 659 17 795 5 30 9
62 10 70 0 8 2 29 5 45 2 17 5 35 5 40 1 6 5 4 10 -3 4 -8 4 -35 -1 -60z
m8721 -74 c7 -73 15 -153 18 -178 3 -25 6 -87 7 -137 0 -51 4 -93 8 -93 4 0 6
-6 3 -12 -2 -7 -6 -106 -9 -220 -3 -114 -8 -218 -12 -232 -4 -16 -2 -26 4 -26
7 0 5 -13 -4 -35 -8 -20 -14 -41 -13 -48 6 -45 -2 -87 -17 -87 -8 0 -13 3 -11
8 5 7 13 66 23 162 19 192 14 767 -6 755 -5 -3 -5 8 0 24 4 16 6 31 4 34 -2 2
-6 21 -8 43 -2 21 -7 69 -11 107 -4 39 -4 67 2 67 5 0 15 -60 22 -132z m-8983
77 c-4 -19 -11 -35 -16 -35 -5 0 -8 6 -6 13 3 6 7 25 11 41 9 41 19 24 11 -19z
m404 25 c0 -5 -5 -10 -11 -10 -5 0 -7 5 -4 10 3 6 8 10 11 10 2 0 4 -4 4 -10z
m-415 -125 c-3 -26 -9 -44 -12 -41 -8 8 -6 74 3 87 12 20 16 -1 9 -46z m-5
-70 c0 -8 -4 -15 -8 -15 -5 0 -9 7 -9 15 0 8 4 15 9 15 4 0 8 -7 8 -15z m-6
-66 c-4 -8 -14 -202 -16 -317 -1 -54 -5 -88 -9 -80 -10 14 -1 339 10 428 2 11
5 9 10 -5 5 -11 7 -23 5 -26z m-494 -296 c-3 -134 1 -224 11 -218 6 4 6 -1 -2
-12 -16 -27 4 -272 23 -284 10 -7 10 -9 0 -9 -12 0 -15 -54 -3 -75 3 -5 6 -26
7 -45 1 -62 34 -283 60 -405 9 -38 18 -81 20 -95 3 -14 9 -41 14 -60 13 -45
13 -57 1 -45 -17 18 -97 434 -115 595 -19 172 -23 228 -31 483 -4 136 -3 197
5 197 6 0 10 -12 10 -27z m9390 -10 c0 -13 3 -14 12 -5 7 7 21 12 31 12 19 0
19 -6 13 -177 -4 -98 -9 -187 -11 -198 -2 -11 -7 -65 -10 -119 -3 -55 -10
-130 -16 -166 -5 -37 -9 -71 -8 -76 1 -5 -1 -17 -6 -27 -4 -9 -5 -26 -2 -37 3
-10 1 -20 -4 -22 -4 -2 -10 -20 -13 -40 -2 -21 -8 -43 -12 -49 -4 -7 -8 -33
-9 -58 -1 -26 -6 -55 -12 -66 -10 -19 -25 -80 -28 -117 -1 -10 -7 -23 -13 -30
-6 -7 -10 -16 -10 -21 0 -4 -3 -24 -8 -45 -4 -20 -8 -40 -8 -44 -1 -3 -4 -10
-8 -14 -5 -4 -8 -20 -8 -34 0 -15 -7 -33 -15 -40 -8 -7 -13 -16 -10 -20 3 -4
-2 -27 -10 -50 -18 -51 -19 -74 -3 -64 7 4 8 3 4 -5 -4 -6 -11 -9 -15 -7 -4 3
-26 -43 -49 -102 -80 -212 -225 -511 -343 -707 -143 -239 -420 -614 -448 -607
-7 1 -10 -2 -7 -7 6 -10 -121 -161 -136 -161 -12 0 -10 14 5 29 10 11 10 13 0
7 -9 -5 -13 2 -13 23 0 24 22 57 103 153 142 170 218 270 325 431 51 76 92
141 92 143 0 2 18 33 39 68 22 35 70 122 107 192 37 71 71 131 76 132 4 2 6 8
3 12 -5 8 3 27 48 127 5 12 14 20 18 17 5 -3 6 2 3 11 -6 14 1 32 37 107 5 10
9 26 9 36 0 10 5 23 10 28 6 6 13 24 16 39 3 16 8 33 12 39 4 6 7 13 8 16 0 3
6 19 13 35 8 17 14 42 15 57 0 16 6 28 11 28 6 0 11 8 12 18 1 9 3 24 5 32 22
79 30 100 39 105 5 4 7 15 4 25 -3 11 -2 28 4 38 6 11 12 36 14 56 2 21 11 46
20 56 9 10 13 28 10 39 -3 12 0 41 6 64 13 50 15 59 46 262 13 88 25 179 27
203 1 24 5 45 10 48 4 3 3 15 -2 28 -5 13 -7 26 -5 28 7 6 15 159 16 276 0 63
4 112 10 112 5 0 9 -8 9 -17z m479 -56 c6 -8 9 -16 6 -19 -3 -3 -8 -70 -11
-149 -3 -79 -7 -154 -10 -166 -2 -12 0 -25 6 -28 6 -4 6 -12 0 -23 -5 -9 -14
-63 -21 -119 -8 -74 -15 -103 -25 -103 -7 0 -11 6 -9 13 11 32 33 390 35 560
0 48 9 58 29 34z m-9939 -71 c0 -2 -8 -10 -17 -17 -16 -13 -17 -12 -4 4 13 16
21 21 21 13z m552 -100 c2 -83 4 -96 17 -91 13 5 14 4 4 -6 -7 -7 -13 -21 -13
-31 0 -33 -20 -19 -21 15 0 17 -2 66 -4 107 -3 71 2 117 11 107 2 -2 5 -48 6
-101z m15 -183 c5 -100 9 -123 16 -123 4 0 3 -9 -3 -20 -6 -11 -8 -25 -5 -31
12 -18 15 -79 5 -79 -5 0 -11 10 -11 23 -1 12 -3 29 -4 37 -1 8 -3 25 -4 38 0
15 -5 21 -13 16 -7 -5 -8 -3 -2 7 4 8 7 44 5 82 -1 37 1 67 6 67 5 0 9 -8 10
-17z m8703 -13 c0 -5 -5 -10 -11 -10 -5 0 -7 5 -4 10 3 6 8 10 11 10 2 0 4 -4
4 -10z m1058 -205 c-3 -3 -9 2 -12 12 -6 14 -5 15 5 6 7 -7 10 -15 7 -18z
m-783 -110 c-9 -63 -21 -115 -26 -115 -5 0 -7 15 -4 33 3 17 10 61 15 97 13
87 20 114 27 106 3 -3 -2 -57 -12 -121z m-8695 73 c1 -2 10 -50 21 -108 11
-58 24 -127 29 -154 31 -166 123 -486 139 -486 3 0 6 -10 7 -22 1 -26 52 -168
65 -183 5 -5 9 -15 9 -23 0 -8 9 -33 19 -56 10 -23 33 -72 50 -111 17 -38 35
-77 41 -85 29 -46 58 -122 53 -139 -8 -33 -26 -25 -20 8 5 22 0 39 -18 66 -14
20 -25 41 -25 48 0 7 -8 26 -18 42 -10 17 -37 77 -61 135 -24 58 -47 114 -52
125 -18 42 -62 161 -64 175 -1 8 -8 29 -14 45 -7 17 -19 54 -27 84 -7 29 -18
58 -23 65 -5 6 -9 14 -9 19 0 19 -15 83 -22 92 -5 6 -8 13 -8 18 0 21 -16 100
-32 162 -10 39 -24 111 -31 160 -7 50 -16 98 -21 108 -5 11 -5 17 2 17 5 0 10
-1 10 -2z m-250 -48 c0 -16 -4 -30 -10 -30 -5 0 -10 14 -10 30 0 17 5 30 10
30 6 0 10 -13 10 -30z m9422 -81 c-1 -13 -7 -25 -12 -27 -6 -2 -6 -11 0 -23 8
-14 7 -19 -3 -19 -23 0 -25 8 -14 55 11 46 34 57 29 14z m-10282 -103 c0 -2
-8 -10 -17 -17 -16 -13 -17 -12 -4 4 13 16 21 21 21 13z m10060 -63 c126 -18
155 -26 172 -40 10 -9 15 -19 12 -24 -3 -5 -7 -21 -10 -36 -2 -16 -13 -66 -24
-113 -11 -47 -24 -107 -30 -135 -6 -27 -14 -57 -17 -65 -12 -30 -44 -138 -47
-160 -2 -8 -8 -26 -13 -40 -18 -42 -33 -96 -33 -113 0 -9 -4 -17 -8 -17 -4 0
-13 -17 -19 -37 -21 -69 -59 -168 -76 -198 -19 -35 -23 -20 -5 22 12 29 26 67
73 193 15 41 28 85 28 97 0 13 3 23 7 23 4 0 13 21 20 48 6 26 18 63 25 82 7
20 14 51 16 70 2 19 7 38 11 41 5 3 15 34 22 70 8 35 21 89 29 119 8 30 18 72
21 93 4 21 9 44 12 52 5 13 -42 28 -126 39 -19 3 -65 12 -102 19 -49 11 -68
11 -69 3 -5 -38 -11 -67 -49 -211 -69 -264 -86 -322 -100 -347 -6 -10 -10 -24
-10 -33 0 -8 -6 -29 -14 -47 -8 -18 -34 -85 -59 -148 -119 -306 -283 -620
-470 -900 -66 -98 -190 -270 -229 -315 -9 -11 -24 -29 -32 -40 -9 -11 -16 -15
-16 -9 0 6 28 47 62 90 68 86 232 318 289 411 124 198 302 549 361 713 11 30
26 69 34 87 8 17 14 37 14 45 0 8 4 18 9 24 4 5 16 34 26 64 10 30 26 80 36
110 11 30 21 64 24 75 3 11 20 76 40 145 19 69 37 143 40 164 7 52 26 118 39
135 10 13 16 13 136 -6z m410 -167 c0 -2 -8 -10 -17 -17 -16 -13 -17 -12 -4 4
13 16 21 21 21 13z m-9976 -206 c9 -36 24 -85 32 -110 7 -25 22 -74 33 -110
11 -36 25 -78 32 -95 7 -16 13 -34 14 -40 4 -28 19 -72 31 -90 8 -11 14 -25
14 -31 0 -6 8 -29 17 -50 9 -22 24 -59 33 -84 10 -25 25 -62 34 -82 9 -21 13
-38 9 -38 -9 0 -17 16 -76 165 -49 123 -117 317 -117 332 0 6 -7 27 -15 48
-13 30 -18 35 -30 25 -8 -7 -15 -9 -15 -5 0 4 7 13 14 19 13 9 12 22 -8 91
-33 114 -39 142 -28 130 5 -5 17 -39 26 -75z m1211 -180 c-3 -5 -12 -10 -18
-10 -7 0 -6 4 3 10 19 12 23 12 15 0z m8100 -80 c-3 -5 -11 -10 -16 -10 -6 0
-7 5 -4 10 3 6 11 10 16 10 6 0 7 -4 4 -10z m-8075 -24 c0 -2 -8 -10 -17 -17
-16 -13 -17 -12 -4 4 13 16 21 21 21 13z m8050 -50 c0 -3 -4 -8 -10 -11 -5 -3
-10 -1 -10 4 0 6 5 11 10 11 6 0 10 -2 10 -4z m149 -362 c-46 -108 -173 -364
-181 -364 -4 0 23 63 62 139 38 77 70 142 70 144 0 12 62 138 66 134 2 -2 -5
-26 -17 -53z m-8393 -111 c-4 -43 -9 -107 -11 -143 -10 -151 -17 -213 -25
-199 -4 8 -1 86 6 174 8 88 14 179 15 203 0 23 5 42 11 42 8 0 9 -25 4 -77z
m-744 -15 c20 -40 42 -88 49 -105 8 -18 17 -33 21 -33 5 0 8 -7 8 -15 0 -9 10
-32 23 -53 13 -20 36 -63 52 -95 16 -32 33 -60 37 -63 11 -7 10 -24 -2 -24 -5
0 -10 5 -10 10 0 6 -12 29 -26 52 -34 53 -194 374 -194 388 0 20 7 9 42 -62z
m243 -148 c-3 -5 -12 -10 -18 -10 -7 0 -6 4 3 10 19 12 23 12 15 0z m628 -33
c9 -14 12 -29 7 -37 -6 -9 -12 -5 -24 17 -8 17 -12 33 -9 37 9 9 9 9 26 -17z
m-85 -253 c-6 -5 -58 79 -58 93 0 4 14 -14 31 -40 18 -26 29 -50 27 -53z
m-543 -22 c14 -26 44 -75 66 -110 23 -35 39 -65 36 -68 -2 -3 -20 19 -38 48
-48 75 -58 91 -65 111 -3 9 -10 17 -14 17 -4 0 -10 8 -14 18 -3 9 -9 23 -12
31 -16 35 19 -5 41 -47z m605 -59 c0 -7 3 -13 8 -13 9 0 35 -40 29 -46 -5 -5
-87 111 -87 123 0 13 49 -51 50 -64z m-475 -153 c3 -11 10 -20 14 -20 4 0 12
-10 18 -22 10 -22 136 -193 204 -278 18 -22 30 -43 26 -46 -3 -3 -14 7 -24 23
-10 15 -23 34 -30 41 -31 32 -168 220 -216 295 -10 15 -13 27 -8 27 5 0 13 -9
16 -20z m-515 -380 c0 -13 -317 -12 -325 0 -4 7 52 10 159 9 91 0 166 -4 166
-9z m340 -1 c0 -4 -74 -8 -166 -8 -102 -1 -163 3 -159 9 7 12 325 11 325 -1z
m390 1 c0 -7 -63 -10 -190 -10 -104 1 -190 5 -190 10 0 4 86 8 190 9 128 1
190 -2 190 -9z m40 0 c0 -5 -7 -10 -15 -10 -8 0 -15 5 -15 10 0 6 7 10 15 10
8 0 15 -4 15 -10z m130 -1 c0 -5 -21 -9 -46 -9 -27 0 -43 -4 -39 -10 9 -14 -8
-13 -23 2 -20 20 -14 24 48 25 33 1 60 -3 60 -8z m1492 -5 c16 -8 28 -18 25
-21 -3 -2 -15 0 -26 7 -14 7 -113 11 -296 11 -155 0 -275 4 -275 9 0 5 118 9
271 9 225 0 276 -2 301 -15z m-839 -103 c50 -49 128 -119 172 -157 44 -38 85
-73 91 -79 16 -14 64 -52 97 -76 15 -11 27 -25 27 -30 0 -8 -122 83 -150 111
-3 3 -36 32 -75 65 -38 32 -104 92 -145 131 -41 40 -85 81 -97 92 -22 18 -29
32 -18 32 3 0 47 -40 98 -89z m288 8 c52 -45 98 -88 102 -95 4 -8 13 -14 19
-14 6 0 24 -13 40 -30 15 -16 31 -30 34 -30 9 0 178 -123 182 -132 2 -4 7 -8
12 -8 5 0 48 -26 97 -59 103 -69 231 -143 360 -209 51 -26 93 -53 93 -59 0 -7
-3 -13 -6 -13 -19 0 -383 206 -404 229 -9 9 -22 17 -29 19 -8 2 -50 28 -95 59
-45 31 -100 70 -123 86 -24 15 -43 33 -43 39 0 6 -3 9 -6 5 -11 -10 -344 265
-344 285 0 18 21 5 111 -73z m809 -45 l213 -116 168 1 c105 0 169 -4 169 -10
0 -6 -64 -9 -169 -9 l-170 2 -208 114 c-114 63 -211 114 -215 114 -5 0 -8 5
-8 10 0 6 2 10 4 10 2 0 99 -52 216 -116z m-1803 86 c3 -11 8 -20 12 -20 4 0
38 -36 77 -81 38 -44 134 -145 213 -225 80 -79 142 -146 140 -149 -6 -6 -331
323 -374 378 -16 22 -41 49 -53 60 -31 29 -47 57 -31 57 6 0 13 -9 16 -20z
m909 -46 c35 -31 64 -63 64 -71 0 -8 5 -11 10 -8 16 10 40 -14 33 -33 -3 -11
-2 -13 4 -5 5 8 27 -4 72 -40 58 -46 62 -52 45 -64 -10 -7 -13 -13 -8 -13 6 0
15 5 20 10 8 8 44 -13 120 -67 60 -43 159 -109 219 -148 61 -38 113 -74 117
-79 3 -5 14 -11 24 -12 9 -2 20 -8 24 -14 4 -7 11 -12 16 -13 5 -1 8 -6 6 -10
-1 -5 2 -6 7 -3 5 4 26 -1 46 -11 25 -12 34 -22 30 -32 -4 -11 -3 -13 4 -6 9
9 140 -48 276 -120 6 -3 5 -7 -2 -11 -7 -3 -13 -10 -13 -16 0 -6 8 -4 18 5 17
16 23 15 83 -10 35 -16 66 -31 67 -35 2 -5 8 -8 13 -8 16 0 48 -33 42 -43 -3
-6 -1 -7 5 -3 11 6 82 -52 82 -67 0 -3 -16 0 -35 6 -19 6 -35 13 -35 17 0 3
-8 6 -17 7 -16 1 -55 17 -195 76 -15 6 -24 15 -22 19 3 4 -1 5 -9 2 -18 -7
-359 164 -352 176 3 5 -3 8 -12 8 -26 -2 -342 191 -351 214 -2 4 -8 8 -13 8
-18 0 -159 111 -159 125 0 8 -6 12 -13 9 -7 -2 -26 7 -41 21 -15 14 -30 25
-33 25 -3 0 -16 11 -29 25 -13 14 -26 25 -29 25 -17 0 -63 54 -58 69 4 14 3
14 -6 1 -9 -13 -19 -7 -61 35 -27 27 -50 55 -50 62 0 7 -7 10 -15 7 -8 -4 -15
-2 -15 4 0 10 39 41 53 41 5 1 38 -24 73 -55z m5084 27 c0 -5 -12 -16 -27 -23
-16 -8 -76 -40 -135 -72 -60 -32 -108 -54 -108 -49 0 5 33 25 73 46 39 21 99
53 132 72 71 40 65 37 65 26z m1265 -219 c-174 -173 -408 -376 -419 -365 -3 4
-6 2 -6 -4 0 -14 -237 -193 -254 -193 -22 0 8 28 107 101 227 169 384 304 577
500 90 91 149 143 155 138 6 -6 -55 -73 -160 -177z m-1545 69 c0 -5 -16 -18
-35 -30 -35 -20 -39 -20 -1340 -20 -811 0 -1305 3 -1305 9 0 6 495 10 1306 10
1273 0 1308 0 1338 19 38 24 36 23 36 12z m1360 -52 c0 -7 -165 -159 -173
-159 -2 0 -22 -17 -43 -37 -21 -20 -57 -50 -80 -67 -22 -17 -74 -56 -115 -87
-291 -220 -611 -405 -975 -564 -126 -55 -259 -106 -272 -103 -4 0 -28 -9 -55
-21 -67 -31 -428 -133 -454 -128 -12 2 -20 1 -18 -3 7 -11 -413 -90 -474 -90
-5 0 -9 13 -9 30 1 33 17 39 108 43 25 1 47 5 50 8 3 3 52 13 109 23 58 10
150 29 205 43 56 13 110 26 121 27 12 1 25 5 30 8 6 3 32 11 58 18 41 11 50
11 59 -1 8 -12 9 -12 5 1 -3 11 34 28 152 69 86 29 168 54 183 55 14 0 24 4
22 7 -5 9 26 20 37 13 5 -3 9 -1 9 4 0 5 15 15 33 23 17 7 60 25 94 40 105 47
133 58 133 51 0 -4 4 -2 8 4 8 14 110 64 128 64 7 0 14 3 16 8 2 4 55 36 118
71 63 36 147 85 185 109 39 25 76 45 83 45 6 0 12 3 12 7 0 8 136 101 146 99
3 0 11 6 17 14 7 8 55 46 107 85 103 77 250 198 345 286 l60 55 17 -22 c10
-12 18 -25 18 -28z m-4475 11 c-8 -13 -235 -14 -235 -1 0 5 54 10 121 10 79 1
118 -2 114 -9z m215 0 c0 -6 -40 -10 -100 -10 -60 0 -100 4 -100 10 0 6 40 10
100 10 60 0 100 -4 100 -10z m210 1 c0 -5 -45 -10 -100 -10 -59 0 -100 3 -100
9 0 6 41 10 100 10 55 0 100 -4 100 -9z m3670 -80 c0 -6 -42 -41 -92 -80 -51
-39 -98 -75 -104 -79 -40 -33 -225 -154 -229 -150 -3 3 36 33 87 68 97 66 251
180 303 224 34 29 35 29 35 17z m-560 -75 c0 -8 -182 -117 -187 -112 -3 2 12
15 34 29 21 13 61 38 88 55 47 30 65 38 65 28z m1160 -36 c0 -4 -48 -50 -106
-102 -59 -51 -123 -108 -143 -125 -20 -18 -42 -31 -49 -28 -7 3 -11 1 -8 -4 3
-4 -11 -21 -31 -37 -20 -16 -41 -34 -47 -39 -63 -60 -443 -318 -456 -310 -4 3
-10 -2 -13 -10 -8 -19 -64 -47 -72 -35 -7 12 74 64 98 62 9 0 15 2 13 6 -5 9
102 85 120 85 7 0 15 6 18 14 3 7 12 13 20 13 7 0 17 7 20 16 3 8 10 12 16 9
5 -3 10 -2 10 3 0 5 37 35 83 67 45 32 84 61 87 64 3 4 59 50 125 103 66 53
161 135 210 181 82 77 105 92 105 67z m-6129 -33 c24 -19 96 -69 159 -112 119
-80 167 -125 64 -59 -98 62 -284 193 -284 200 0 11 21 1 61 -29z m-680 -64
c19 -23 191 -169 267 -227 35 -26 61 -50 58 -53 -5 -6 -109 75 -236 183 -101
86 -129 114 -112 114 5 0 16 -7 23 -17z m1428 -83 c61 -30 111 -58 111 -63 0
-7 -201 92 -230 113 -27 20 7 6 119 -50z m4341 -28 c0 -33 -658 -370 -760
-389 -39 -7 -23 2 90 48 183 75 448 212 615 317 56 36 55 35 55 24z m-4642
-113 c50 -28 92 -55 92 -60 0 -9 -73 29 -122 62 -14 11 -31 19 -36 19 -6 0
-17 6 -24 13 -7 6 -25 18 -40 26 -16 8 -28 19 -28 24 0 5 15 -1 33 -12 17 -12
74 -44 125 -72z m470 62 c17 -7 32 -17 32 -21 0 -5 -18 -1 -40 7 -22 9 -40 20
-40 25 0 5 3 8 8 6 4 -3 22 -10 40 -17z m-61 -48 c32 -15 61 -32 65 -38 4 -5
8 -7 8 -3 0 3 37 -9 83 -28 78 -32 157 -94 157 -124 0 -18 -19 -11 -31 12 -18
33 -56 60 -119 84 -104 41 -235 103 -238 113 -6 17 13 13 75 -16z m188 -15 c7
-8 4 -9 -10 -3 -11 4 -32 12 -47 17 -16 5 -28 14 -28 19 0 11 70 -17 85 -33z
m310 -109 c11 -4 35 -11 53 -14 18 -4 30 -10 27 -15 -8 -13 -375 114 -375 130
0 6 206 -64 295 -101z m2843 70 c-31 -17 -381 -130 -392 -126 -6 3 -5 7 4 9 8
3 96 32 195 66 176 58 230 73 193 51z m-3241 -208 c56 -22 114 -46 129 -51 15
-6 24 -13 21 -16 -14 -14 -557 227 -557 247 0 4 69 -25 153 -65 83 -40 198
-92 254 -115z m-923 107 c28 -18 53 -36 54 -40 2 -5 8 -8 14 -8 14 0 141 -79
150 -94 4 -6 8 -7 8 -3 0 10 131 -61 141 -75 3 -6 8 -8 10 -7 9 6 43 -20 36
-28 -8 -7 -117 46 -117 57 0 4 -6 7 -13 7 -13 0 -124 63 -264 152 -29 18 -53
37 -53 42 0 5 -3 8 -7 8 -19 -3 -33 2 -33 11 0 17 22 11 74 -22z m1507 -23
c30 -8 69 -18 87 -21 17 -4 32 -11 32 -15 0 -10 -27 -5 -114 22 -32 11 -65 19
-72 19 -7 0 -16 5 -20 11 -4 7 0 9 13 5 11 -3 44 -13 74 -21z m2249 -5 c0 -5
-4 -10 -9 -10 -5 0 -16 -3 -25 -6 -9 -3 -16 -1 -16 4 0 9 16 17 43 21 4 0 7
-3 7 -9z m-65 -19 c-9 -7 -59 -19 -210 -51 -129 -26 -157 -31 -162 -26 -8 8 6
11 138 36 63 11 138 27 165 35 59 16 81 18 69 6z m-1905 -40 c80 -16 171 -32
203 -36 31 -4 57 -11 57 -16 0 -10 -33 -5 -225 33 -82 16 -155 31 -162 32 -12
2 -31 16 -22 16 2 0 69 -13 149 -29z m1520 -35 c0 -3 -4 -8 -10 -11 -5 -3 -10
-1 -10 4 0 6 5 11 10 11 6 0 10 -2 10 -4z m1768 -7 c-3 -10 -49 -37 -211 -123
-37 -20 -72 -34 -77 -31 -6 4 -10 2 -10 -4 0 -6 -35 -27 -77 -47 -118 -54
-173 -75 -173 -64 0 6 21 20 48 32 26 12 113 54 193 93 80 38 152 71 160 73 8
2 16 7 19 12 8 12 103 68 118 69 8 1 12 -4 10 -10z m-2778 -29 c63 -5 172 -10
242 -10 75 0 129 -4 133 -10 6 -10 -275 -6 -365 5 -19 2 -71 7 -116 10 -44 4
-87 11 -95 16 -9 7 2 8 36 4 28 -3 102 -10 165 -15z m1964 10 c-14 -14 -321
-119 -328 -112 -3 3 64 29 150 58 86 29 159 56 162 59 3 3 10 5 16 5 7 0 7 -3
0 -10z m-3118 -46 c17 -14 17 -15 1 -10 -10 3 -23 6 -28 6 -5 0 -9 5 -9 10 0
14 13 12 36 -6z m82 -21 c12 -3 22 -10 22 -15 0 -6 -7 -7 -16 -4 -9 3 -27 9
-40 12 -13 3 -24 11 -24 16 0 6 8 7 18 3 9 -4 27 -10 40 -12z m127 -43 c94
-32 75 -34 -32 -5 -35 10 -63 21 -63 26 0 11 -9 13 95 -21z m-901 4 c9 -3 16
-12 16 -19 0 -8 7 -11 18 -9 9 3 26 -3 37 -13 11 -10 27 -19 35 -20 8 -1 72
-26 142 -57 71 -31 132 -56 138 -56 5 0 10 -5 10 -11 0 -5 4 -8 9 -4 5 3 13 0
16 -6 12 -19 -3 -21 -36 -5 -18 9 -38 16 -46 16 -7 0 -13 5 -13 11 0 5 -4 8
-8 5 -4 -2 -21 2 -37 9 -17 8 -59 27 -95 43 -161 71 -210 97 -210 109 0 15 2
15 24 7z m3461 -13 c-13 -12 -293 -83 -308 -78 -6 2 9 9 34 15 24 6 91 25 149
41 116 32 139 36 125 22z m-2323 -53 c54 -13 98 -27 98 -31 0 -5 -10 -5 -22
-1 -13 4 -58 15 -101 25 -43 9 -81 20 -84 23 -10 10 7 7 109 -16z m1998 -27
c0 -13 -350 -72 -515 -87 -138 -12 -55 6 141 31 109 14 235 34 279 44 101 23
95 23 95 12z m-1709 -31 c236 -39 478 -60 744 -62 126 0 199 -4 170 -8 -98
-13 -470 -1 -655 21 -80 10 -104 13 -190 25 -99 13 -227 38 -240 45 -21 12
-23 12 171 -21z m-1368 -63 c51 -24 106 -49 124 -56 31 -13 60 -38 52 -45 -5
-6 -163 67 -167 76 -2 5 -11 8 -20 8 -19 1 -93 39 -77 40 6 0 3 5 -5 10 -34
22 8 7 93 -33z m2472 4 c-11 -4 -47 -8 -80 -9 -75 -1 -37 12 44 15 37 2 49 0
36 -6z m1635 -75 c0 -14 -23 -27 -44 -25 -5 0 -12 -3 -15 -8 -13 -19 -427
-167 -441 -158 -5 3 -10 1 -12 -3 -5 -14 -419 -126 -445 -120 -5 0 -15 -1 -23
-5 -34 -13 -193 -39 -211 -34 -10 3 -19 1 -19 -5 0 -6 -15 -8 -34 -6 -19 2
-32 0 -30 -4 3 -4 -12 -9 -33 -10 -21 0 -42 -2 -48 -3 -54 -10 -168 -20 -332
-31 -75 -5 -103 -4 -103 5 0 6 15 11 33 12 17 0 43 2 57 4 14 2 76 6 139 9 63
3 116 8 119 11 3 3 17 5 31 5 14 0 98 12 186 26 88 14 174 27 190 29 17 1 37
5 45 8 40 14 112 27 121 22 5 -4 9 -2 9 3 0 5 26 14 58 21 53 12 127 32 247
67 28 8 57 16 65 17 8 2 20 5 25 9 6 3 33 13 60 21 65 21 241 87 330 125 39
17 71 31 73 31 1 1 2 -5 2 -13z m-3580 -143 c8 -3 20 -7 27 -9 6 -1 56 -16
110 -32 54 -17 168 -47 253 -68 85 -20 162 -39 170 -42 8 -2 24 -6 35 -7 49
-7 211 -37 225 -42 8 -3 29 -6 45 -7 138 -11 195 -20 195 -32 0 -9 -9 -12 -27
-9 -29 4 -94 12 -178 22 -27 3 -53 10 -56 16 -4 5 -12 7 -18 3 -31 -20 -679
134 -664 157 3 6 1 7 -6 3 -10 -6 -185 45 -216 63 -5 3 -19 7 -30 8 -10 2 -22
8 -26 14 -3 6 -8 9 -10 7 -7 -6 -89 25 -89 34 0 5 -4 7 -9 3 -13 -8 -61 16
-61 30 0 10 176 -50 330 -112z m500 6 c19 -6 49 -12 65 -15 68 -10 125 -27
125 -35 0 -11 -43 -12 -54 -2 -3 4 -14 8 -24 8 -34 4 -98 16 -136 26 -29 8
-36 13 -25 20 8 5 14 9 14 9 0 0 16 -5 35 -11z m273 -55 c20 -3 37 -11 37 -16
0 -7 -15 -8 -37 -4 -21 3 -46 6 -55 6 -10 0 -18 7 -18 16 0 10 6 14 18 10 9
-3 34 -8 55 -12z m202 -29 c66 -8 166 -18 222 -22 78 -5 103 -9 103 -20 0 -10
-11 -12 -47 -9 -27 3 -75 8 -108 11 -125 11 -175 18 -175 25 0 5 -9 6 -20 3
-37 -10 -130 7 -130 23 0 10 6 13 18 10 9 -3 71 -12 137 -21z m413 -38 c6 3
12 0 12 -6 0 -6 -19 -11 -45 -11 -41 0 -54 7 -39 22 3 4 18 3 32 -1 15 -5 33
-6 40 -4z"/>
<path d="M5155 9820 c3 -5 8 -10 11 -10 2 0 4 5 4 10 0 6 -5 10 -11 10 -5 0
-7 -4 -4 -10z"/>
<path d="M4910 9785 c0 -8 4 -15 8 -15 5 0 9 7 9 15 0 8 -4 15 -9 15 -4 0 -8
-7 -8 -15z"/>
<path d="M7005 9501 c-3 -5 -1 -12 5 -16 5 -3 10 1 10 9 0 18 -6 21 -15 7z"/>
<path d="M5835 8820 c-3 -5 -1 -10 4 -10 6 0 11 5 11 10 0 6 -2 10 -4 10 -3 0
-8 -4 -11 -10z"/>
<path d="M5155 8809 c-4 -6 -5 -12 -2 -15 2 -3 7 2 10 11 7 17 1 20 -8 4z"/>
<path d="M5411 8794 c0 -11 3 -14 6 -6 3 7 2 16 -1 19 -3 4 -6 -2 -5 -13z"/>
<path d="M5046 8753 c-6 -14 -5 -15 5 -6 7 7 10 15 7 18 -3 3 -9 -2 -12 -12z"/>
<path d="M5705 8729 c-4 -6 -5 -12 -2 -15 2 -3 7 2 10 11 7 17 1 20 -8 4z"/>
<path d="M5801 8704 c0 -11 3 -14 6 -6 3 7 2 16 -1 19 -3 4 -6 -2 -5 -13z"/>
<path d="M4455 8690 c-3 -5 -1 -10 4 -10 6 0 11 5 11 10 0 6 -2 10 -4 10 -3 0
-8 -4 -11 -10z"/>
<path d="M1150 6580 c0 -5 5 -10 10 -10 6 0 10 5 10 10 0 6 -4 10 -10 10 -5 0
-10 -4 -10 -10z"/>
<path d="M1130 6525 c0 -8 4 -15 10 -15 5 0 7 7 4 15 -4 8 -8 15 -10 15 -2 0
-4 -7 -4 -15z"/>
<path d="M1025 6000 c-3 -5 -1 -10 4 -10 6 0 11 5 11 10 0 6 -2 10 -4 10 -3 0
-8 -4 -11 -10z"/>
<path d="M1026 5853 c-6 -14 -5 -15 5 -6 7 7 10 15 7 18 -3 3 -9 -2 -12 -12z"/>
<path d="M1003 5575 c0 -8 4 -12 9 -9 5 3 6 10 3 15 -9 13 -12 11 -12 -6z"/>
<path d="M986 5433 c-6 -14 -5 -15 5 -6 7 7 10 15 7 18 -3 3 -9 -2 -12 -12z"/>
<path d="M1030 4881 c0 -6 4 -13 10 -16 6 -3 7 1 4 9 -7 18 -14 21 -14 7z"/>
<path d="M1256 3883 c-6 -14 -5 -15 5 -6 7 7 10 15 7 18 -3 3 -9 -2 -12 -12z"/>
<path d="M1280 3780 c0 -5 5 -10 10 -10 6 0 10 5 10 10 0 6 -4 10 -10 10 -5 0
-10 -4 -10 -10z"/>
<path d="M1385 3510 c-3 -5 -2 -10 4 -10 5 0 13 5 16 10 3 6 2 10 -4 10 -5 0
-13 -4 -16 -10z"/>
<path d="M10056 5975 c-9 -26 -7 -32 5 -12 6 10 9 21 6 23 -2 3 -7 -2 -11 -11z"/>
<path d="M4582 10048 c-7 -7 -12 -16 -12 -21 0 -5 7 -1 16 8 9 9 14 18 12 20
-2 3 -10 -1 -16 -7z"/>
<path d="M4225 9969 c-10 -15 3 -25 16 -12 7 7 7 13 1 17 -6 3 -14 1 -17 -5z"/>
<path d="M7160 9750 c0 -5 5 -10 10 -10 6 0 10 5 10 10 0 6 -4 10 -10 10 -5 0
-10 -4 -10 -10z"/>
<path d="M7883 9705 c-7 -8 -13 -18 -13 -22 0 -4 -23 -45 -50 -91 -28 -46 -50
-85 -50 -87 0 -3 14 -12 30 -20 18 -9 28 -21 24 -27 -4 -7 -3 -8 5 -4 11 7
203 -107 236 -140 7 -8 16 -14 20 -14 5 0 184 -128 195 -140 3 -3 34 -27 70
-55 145 -110 360 -309 360 -333 0 -7 4 -11 10 -7 15 9 221 -211 373 -399 l97
-121 153 -5 c83 -3 156 -3 160 -2 10 5 -9 35 -101 157 -144 190 -268 331 -462
526 -222 224 -394 371 -620 534 -30 22 -56 43 -58 47 -2 5 -8 8 -14 8 -6 0
-31 15 -57 33 -67 49 -276 177 -287 177 -5 -1 -15 -7 -21 -15z"/>
<path d="M3450 9670 c0 -5 5 -10 10 -10 6 0 10 5 10 10 0 6 -4 10 -10 10 -5 0
-10 -4 -10 -10z"/>
<path d="M7760 9480 c0 -5 5 -10 11 -10 5 0 7 5 4 10 -3 6 -8 10 -11 10 -2 0
-4 -4 -4 -10z"/>
<path d="M2649 9213 c-13 -16 -12 -17 4 -4 9 7 17 15 17 17 0 8 -8 3 -21 -13z"/>
<path d="M710 5309 c0 -5 5 -7 10 -4 6 3 10 8 10 11 0 2 -4 4 -10 4 -5 0 -10
-5 -10 -11z"/>
<path d="M905 3980 c3 -5 8 -10 11 -10 2 0 4 5 4 10 0 6 -5 10 -11 10 -5 0 -7
-4 -4 -10z"/>
<path d="M1041 3624 c0 -11 3 -14 6 -6 3 7 2 16 -1 19 -3 4 -6 -2 -5 -13z"/>
<path d="M1130 3389 c0 -5 5 -7 10 -4 6 3 10 8 10 11 0 2 -4 4 -10 4 -5 0 -10
-5 -10 -11z"/>
<path d="M1316 3065 c-9 -26 -7 -32 5 -12 6 10 9 21 6 23 -2 3 -7 -2 -11 -11z"/>
<path d="M1380 2949 c0 -5 5 -7 10 -4 6 3 10 8 10 11 0 2 -4 4 -10 4 -5 0 -10
-5 -10 -11z"/>
<path d="M1400 2920 c0 -5 5 -10 11 -10 5 0 7 5 4 10 -3 6 -8 10 -11 10 -2 0
-4 -4 -4 -10z"/>
<path d="M2115 2040 c-3 -5 -1 -10 4 -10 6 0 11 5 11 10 0 6 -2 10 -4 10 -3 0
-8 -4 -11 -10z"/>
<path d="M2270 1859 c0 -5 5 -7 10 -4 6 3 10 8 10 11 0 2 -4 4 -10 4 -5 0 -10
-5 -10 -11z"/>
<path d="M2740 1503 c0 -17 14 -23 29 -14 9 6 10 11 2 15 -6 4 -11 1 -11 -6 0
-9 -3 -9 -10 2 -6 9 -10 10 -10 3z"/>
<path d="M6459 1093 c-13 -16 -12 -17 4 -4 16 13 21 21 13 21 -2 0 -10 -8 -17
-17z"/>
<path d="M5076 1007 c3 -10 9 -15 12 -12 3 3 0 11 -7 18 -10 9 -11 8 -5 -6z"/>
<path d="M5140 1000 c0 -5 5 -10 10 -10 6 0 10 5 10 10 0 6 -4 10 -10 10 -5 0
-10 -4 -10 -10z"/>
<path d="M5198 963 c7 -3 16 -2 19 1 4 3 -2 6 -13 5 -11 0 -14 -3 -6 -6z"/>
<path d="M5475 960 c-3 -5 -1 -10 4 -10 6 0 11 5 11 10 0 6 -2 10 -4 10 -3 0
-8 -4 -11 -10z"/>
</g>
</svg>
